<svg width="117" height="64" viewBox="0 0 117 64" fill="none"
     xmlns="http://www.w3.org/2000/svg">
  <path
    d="M3.40453 61.2698H0V52.3788H3.30141C4.82924 52.3788 5.89133 53.2698 5.89133 54.7519C5.90176 55.1713 5.78331 55.5837 5.55225 55.9325C5.32118 56.2813 4.9888 56.5495 4.60067 56.7003C5.0332 56.8511 5.40651 57.1376 5.66597 57.5178C5.92542 57.898 6.0574 58.3521 6.04257 58.8134C6.04257 60.4377 4.96501 61.2698 3.40453 61.2698ZM13.3861 61.2611L12.6832 59.2555H8.84044L8.13581 61.2611H7.13559L10.3734 52.3788H11.1433L14.3949 61.2611H13.3861ZM15.8214 52.3788H16.7597V61.2698H15.8214V52.3788ZM24.789 61.2698L22.0994 56.5547L20.2416 58.7978V61.2698H19.3101V52.3788H20.2416V57.4856L24.3439 52.3788H25.5176L22.7284 55.818L25.9026 61.275L24.789 61.2698ZM32.4917 61.2611L31.7939 59.2555H27.9357L27.2105 61.2611H26.2171L29.4635 52.3788H30.2696L33.4833 61.2611H32.4917ZM34.9149 61.2698V52.3788H35.8498V60.4377H40.3577V61.2698H34.9149ZM44.2692 61.3478C42.9407 61.3478 42.0643 61.0115 41.2548 60.1621L41.9044 59.5294C42.6211 60.2591 43.3085 60.4984 44.2984 60.4984C45.5805 60.4984 46.3607 59.8864 46.3607 58.8706C46.3607 58.3957 46.2301 58.0039 45.9448 57.7421C45.6595 57.4804 45.4293 57.418 44.7917 57.314L43.7828 57.1562C43.0782 57.0349 42.5317 56.8269 42.145 56.4958C41.6982 56.078 41.4885 55.5458 41.4885 54.8091C41.4885 53.3148 42.5472 52.3077 44.307 52.3077C45.4241 52.3077 46.1734 52.6076 46.9279 53.2819L46.3246 53.8938C45.7713 53.4067 45.1921 53.1519 44.2623 53.1519C43.0868 53.1519 42.408 53.8106 42.408 54.771C42.408 55.2165 42.5317 55.5788 42.8136 55.811C43.1502 56.0788 43.551 56.2522 43.9753 56.3137L44.9446 56.4507C45.7902 56.5894 46.1906 56.7506 46.5687 57.0799C46.8091 57.3033 46.9992 57.5762 47.1261 57.88C47.253 58.1838 47.3137 58.5116 47.3042 58.8412C47.3042 60.4013 46.0909 61.3616 44.2623 61.3616L44.2692 61.3478ZM49.2755 61.2698V52.3788H54.7543V53.2368H50.2258V56.3571H54.0892V57.2152H50.2258V60.4325H54.7543V61.2646L49.2755 61.2698ZM61.8401 61.2611L61.1389 59.2555H57.2978L56.5881 61.2611H55.5741L58.8274 52.3788H59.6145L62.8403 61.2611H61.8401ZM70.0893 61.3478C69.2473 61.3582 68.4356 61.0308 67.8328 60.4377C67.0251 59.5831 67.0251 58.7042 67.0251 56.8321C67.0251 54.9599 67.0251 54.081 67.8328 53.2368C68.1283 52.9373 68.4801 52.7002 68.8676 52.5395C69.255 52.3788 69.6704 52.2976 70.0893 52.3007C71.6773 52.3007 72.8528 53.275 73.1433 54.9564H72.1809C71.954 53.8539 71.1978 53.1744 70.0962 53.1744C69.8149 53.1716 69.5358 53.225 69.2751 53.3315C69.0143 53.438 68.7771 53.5955 68.577 53.795C68.0305 54.3653 67.9634 54.972 67.9634 56.8321C67.9634 58.6921 68.0305 59.3005 68.577 59.8708C68.9821 60.2723 69.5283 60.4954 70.0962 60.4914C71.1978 60.4914 71.9867 59.7876 72.2101 58.6921H73.1501C72.8683 60.3822 71.6653 61.3478 70.0962 61.3478H70.0893ZM78.9796 60.6405C78.51 61.0943 77.8847 61.3476 77.2344 61.3476C76.584 61.3476 75.9588 61.0943 75.4891 60.6405C74.8687 60.0165 74.745 59.1497 74.745 58.2136C74.745 57.2776 74.8687 56.3952 75.4891 55.7504C75.9696 55.3183 76.5907 55.0796 77.2344 55.0796C77.878 55.0796 78.4992 55.3183 78.9796 55.7504C79.6052 56.3952 79.7152 57.2637 79.7152 58.2136C79.7152 59.1636 79.6052 60.0234 78.9796 60.6405ZM89.4424 61.2698V57.4856C89.4424 56.4004 88.8512 55.863 87.9472 55.863C87.0432 55.863 86.4314 56.4126 86.4314 57.3902V61.2698H85.5309V57.4856C85.5309 56.4004 84.9586 55.863 84.0409 55.863C83.1231 55.863 82.5302 56.4126 82.5302 57.4856V61.2698H81.6331V55.1385H82.5336V55.7972C82.7467 55.5578 83.0095 55.3687 83.3033 55.2435C83.5971 55.1182 83.9146 55.0599 84.2333 55.0726C85.0703 55.0726 85.7405 55.4002 86.0997 56.0711C86.327 55.7475 86.631 55.4865 86.9841 55.3121C87.3372 55.1376 87.728 55.0553 88.1208 55.0726C88.7807 55.0726 89.3238 55.265 89.6899 55.6377C89.9074 55.8596 90.0778 56.124 90.1907 56.4146C90.3036 56.7052 90.3565 57.0159 90.3464 57.3278V61.2698H89.4424ZM96.602 60.8035C96.1943 61.173 95.6617 61.3709 95.1137 61.3564C94.7834 61.3757 94.4535 61.3119 94.1535 61.171C93.8536 61.03 93.593 60.8162 93.3951 60.5486V64H92.5101V55.1385H93.3951V55.863C93.8901 55.2009 94.4538 55.0726 95.1137 55.0726C95.7359 55.0726 96.2824 55.265 96.602 55.6134C97.2207 56.2167 97.3513 57.2533 97.3513 58.2136C97.3513 59.174 97.2207 60.1777 96.602 60.8139V60.8035ZM102.7 61.2698V60.6908C102.21 61.1779 101.763 61.3478 100.945 61.3478C100.127 61.3478 99.5993 61.1744 99.2263 60.7913C98.916 60.4507 98.7511 60.0004 98.7675 59.538C98.7675 58.4737 99.5047 57.7681 100.869 57.7681H102.694V57.1736C102.694 56.2704 102.26 55.8266 101.148 55.8266C100.38 55.8266 99.9739 56.0347 99.601 56.5287L99.0046 55.9757C99.5443 55.2563 100.166 55.0726 101.155 55.0726C102.791 55.0726 103.607 55.7538 103.607 57.1025V61.2628L102.7 61.2698ZM109.653 61.2698V57.4856C109.653 56.4004 109.089 55.863 108.153 55.863C107.256 55.863 106.661 56.4126 106.661 57.4856V61.2698H105.769V55.1385H106.661V55.7972C106.874 55.5589 107.136 55.3705 107.43 55.2454C107.723 55.1202 108.039 55.0612 108.357 55.0726C109.015 55.0726 109.56 55.2563 109.921 55.6377C110.352 56.0537 110.559 56.6448 110.559 57.3278V61.2698H109.653ZM114.237 62.7519C114.151 63.0291 114.002 63.2817 113.8 63.4886C113.47 63.7855 113.039 63.9426 112.597 63.9272H112.224V63.0986H112.496C113.109 63.0986 113.303 62.9027 113.492 62.3411L113.934 61.1276L111.745 55.135H112.714L114.381 60.0719L116.029 55.135H116.995L114.237 62.7519ZM102.706 58.4442H101.002C100.096 58.4442 99.6268 58.8152 99.6268 59.5311C99.6268 60.247 100.062 60.5712 101.043 60.5712C101.558 60.5712 102.017 60.5313 102.39 60.1517C102.607 59.9645 102.701 59.6022 102.701 59.1029V58.4442H102.706ZM94.9436 55.8648C93.6134 55.8648 93.3969 56.9933 93.3969 58.2084C93.3969 59.4236 93.6048 60.5504 94.9436 60.5504C96.2824 60.5504 96.4646 59.4063 96.4646 58.2084C96.4646 57.0106 96.2738 55.8648 94.9436 55.8648ZM78.3678 56.3085C78.0627 56.0205 77.66 55.8611 77.2421 55.863C76.8339 55.8611 76.4413 56.0211 76.1491 56.3085C75.6954 56.7454 75.649 57.522 75.649 58.2067C75.649 58.8914 75.6954 59.642 76.1491 60.0997C76.2913 60.2457 76.4616 60.3609 76.6496 60.4381C76.8376 60.5153 77.0392 60.5529 77.2421 60.5486C77.4499 60.553 77.6565 60.5155 77.8498 60.4385C78.043 60.3614 78.2191 60.2462 78.3678 60.0997C78.7906 59.642 78.8318 58.8862 78.8318 58.2067C78.8318 57.5272 78.7906 56.7454 78.3678 56.3085ZM59.2381 53.7499L57.5728 58.4425H60.8519L59.2399 53.7499H59.2381ZM29.8812 53.7499L28.2193 58.4425H31.5104L29.8812 53.7499ZM10.7756 53.7499L9.12916 58.4425H12.4048L10.7756 53.7499ZM3.2258 53.2299H0.94007V56.338H3.2258C4.20024 56.338 4.95642 55.8353 4.95642 54.7606C4.95642 53.7205 4.20024 53.2455 3.2258 53.2455V53.2299ZM3.33235 57.1632H0.94007V60.4308H3.33235C4.4185 60.4308 5.09734 59.7807 5.09734 58.7909C5.09734 57.8011 4.4185 57.1632 3.33235 57.1632Z"
    fill="#312783"/>
  <path fill-rule="evenodd" clip-rule="evenodd"
        d="M21.7264 43.0388C45.6355 43.0388 80.3631 7.23727 96.6914 7.23727C105.264 7.23727 112.59 13.6303 112.59 21.5194C112.59 29.4085 105.264 35.8015 96.6914 35.8015C88.7549 35.8015 75.0062 26.7874 70.0653 23.0761L60.5099 28.7757L67.1437 32.7315C75.4634 38.4988 87.8286 43.044 95.2701 43.044C107.271 43.044 116.997 33.4093 116.997 21.5246C116.997 9.63987 107.271 0 95.2701 0C70.4777 0 38.3246 35.8015 20.3069 35.8015C11.7328 35.8015 4.40475 29.4067 4.40475 21.5194C4.40475 13.6321 11.7328 7.23727 20.3069 7.23727C27.2706 7.23727 41.7033 16.3034 46.8729 19.9974L56.4798 14.2769L49.8529 10.3073C41.5315 4.54518 29.1697 0 21.7264 0C9.72895 0 0 9.63467 0 21.5194C0 33.4041 9.72895 43.0388 21.7264 43.0388Z"
        fill="#312783"/>
  <path fill-rule="evenodd" clip-rule="evenodd"
        d="M96.4543 9.21863C89.0196 9.21863 71.7684 21.1328 71.7684 21.6078C71.7684 22.0828 87.9575 33.9952 96.4543 33.9952C103.892 33.9952 110.248 28.4481 110.248 21.6078C110.248 14.7675 103.889 9.21863 96.4543 9.21863Z"
        fill="#009FE3"/>
  <path fill-rule="evenodd" clip-rule="evenodd"
        d="M98.001 11.5415C93.8351 11.3248 82.1384 16.8667 82.1074 17.1441C82.0765 17.4214 90.7846 16.7315 96.2411 18.7215C100.538 20.2921 104.956 22.341 105.798 18.7545C106.255 14.7276 102.157 11.7512 97.9941 11.5363L98.001 11.5415Z"
        fill="white"/>
  <path fill-rule="evenodd" clip-rule="evenodd"
        d="M20.5423 9.21863C27.9804 9.21863 45.2299 21.1328 45.2299 21.6078C45.2299 22.0828 29.0442 33.9952 20.5423 33.9952C13.106 33.9952 6.75061 28.4481 6.75061 21.6078C6.75061 14.7675 13.1094 9.21863 20.5423 9.21863Z"
        fill="#009FE3"/>
  <path fill-rule="evenodd" clip-rule="evenodd"
        d="M18.9973 11.5415C23.1581 11.3248 34.8599 16.8667 34.8874 17.1441C34.9149 17.4214 26.2086 16.7315 20.7451 18.7267C16.4487 20.2973 12.0319 22.3462 11.1863 18.7597C10.7378 14.7345 14.8349 11.7564 18.9973 11.5415Z"
        fill="white"/>
</svg>
