<svg width="613" height="13" viewBox="0 0 613 13" fill="none"
     xmlns="http://www.w3.org/2000/svg">
  <path
    d="M1.17898 10H0.255682L2.92614 2.72727H3.83523L6.50568 10H5.58239L3.40909 3.87784H3.35227L1.17898 10ZM1.51989 7.15909H5.24148V7.94034H1.51989V7.15909ZM11.9141 10L9.41406 6.66193H8.51918V10H7.63849V2.72727H8.51918V5.88068H8.9027L11.8146 2.72727H12.8658L9.92543 5.9233L12.9652 10H11.9141ZM20.2823 9.16193L20.1829 11.7188H19.2738V10H18.7624V9.16193H20.2823ZM14.1033 10V2.72727H14.9414V9.19034H18.6914V2.72727H19.5295V10H14.1033ZM21.6131 2.72727H22.4796V8.4517H22.5506L26.5279 2.72727H27.3801V10H26.4995V4.28977H26.4284L22.4654 10H21.6131V2.72727ZM35.2788 6.36364C35.2788 7.13068 35.1403 7.79356 34.8633 8.35227C34.5863 8.91098 34.2063 9.34186 33.7234 9.64489C33.2404 9.94792 32.6888 10.0994 32.0685 10.0994C31.4483 10.0994 30.8967 9.94792 30.4137 9.64489C29.9308 9.34186 29.5508 8.91098 29.2738 8.35227C28.9968 7.79356 28.8583 7.13068 28.8583 6.36364C28.8583 5.59659 28.9968 4.93371 29.2738 4.375C29.5508 3.81629 29.9308 3.38542 30.4137 3.08239C30.8967 2.77936 31.4483 2.62784 32.0685 2.62784C32.6888 2.62784 33.2404 2.77936 33.7234 3.08239C34.2063 3.38542 34.5863 3.81629 34.8633 4.375C35.1403 4.93371 35.2788 5.59659 35.2788 6.36364ZM34.4265 6.36364C34.4265 5.7339 34.3211 5.20241 34.1104 4.76918C33.9021 4.33594 33.6192 4.00805 33.2617 3.78551C32.9066 3.56297 32.5089 3.4517 32.0685 3.4517C31.6282 3.4517 31.2293 3.56297 30.8718 3.78551C30.5167 4.00805 30.2338 4.33594 30.0231 4.76918C29.8147 5.20241 29.7106 5.7339 29.7106 6.36364C29.7106 6.99337 29.8147 7.52486 30.0231 7.9581C30.2338 8.39134 30.5167 8.71922 30.8718 8.94176C31.2293 9.1643 31.6282 9.27557 32.0685 9.27557C32.5089 9.27557 32.9066 9.1643 33.2617 8.94176C33.6192 8.71922 33.9021 8.39134 34.1104 7.9581C34.3211 7.52486 34.4265 6.99337 34.4265 6.36364ZM36.7596 10V2.72727H37.6403V5.96591H41.5181V2.72727H42.3988V10H41.5181V6.74716H37.6403V10H36.7596ZM44.1619 10V2.72727H48.5511V3.50852H45.0426V5.96591H48.3239V6.74716H45.0426V9.21875H48.608V10H44.1619ZM50.1385 10V2.72727H52.5959C53.1664 2.72727 53.6328 2.83026 53.995 3.03622C54.3596 3.23982 54.6295 3.51562 54.8047 3.86364C54.9799 4.21165 55.0675 4.59991 55.0675 5.02841C55.0675 5.45691 54.9799 5.84635 54.8047 6.19673C54.6319 6.54711 54.3643 6.82647 54.0021 7.0348C53.6399 7.24077 53.1759 7.34375 52.6101 7.34375H50.8487V6.5625H52.5817C52.9723 6.5625 53.286 6.49503 53.5227 6.36009C53.7595 6.22514 53.9311 6.04285 54.0376 5.81321C54.1465 5.5812 54.201 5.3196 54.201 5.02841C54.201 4.73722 54.1465 4.4768 54.0376 4.24716C53.9311 4.01752 53.7583 3.83759 53.5192 3.70739C53.2801 3.57481 52.9628 3.50852 52.5675 3.50852H51.0192V10H50.1385ZM56.4862 10V2.72727H57.3668V5.96591H61.2447V2.72727H62.1254V10H61.2447V6.74716H57.3668V10H56.4862ZM70.0249 6.36364C70.0249 7.13068 69.8864 7.79356 69.6094 8.35227C69.3324 8.91098 68.9524 9.34186 68.4695 9.64489C67.9865 9.94792 67.4349 10.0994 66.8146 10.0994C66.1944 10.0994 65.6428 9.94792 65.1598 9.64489C64.6768 9.34186 64.2969 8.91098 64.0199 8.35227C63.7429 7.79356 63.6044 7.13068 63.6044 6.36364C63.6044 5.59659 63.7429 4.93371 64.0199 4.375C64.2969 3.81629 64.6768 3.38542 65.1598 3.08239C65.6428 2.77936 66.1944 2.62784 66.8146 2.62784C67.4349 2.62784 67.9865 2.77936 68.4695 3.08239C68.9524 3.38542 69.3324 3.81629 69.6094 4.375C69.8864 4.93371 70.0249 5.59659 70.0249 6.36364ZM69.1726 6.36364C69.1726 5.7339 69.0672 5.20241 68.8565 4.76918C68.6482 4.33594 68.3653 4.00805 68.0078 3.78551C67.6527 3.56297 67.255 3.4517 66.8146 3.4517C66.3743 3.4517 65.9754 3.56297 65.6179 3.78551C65.2628 4.00805 64.9799 4.33594 64.7692 4.76918C64.5608 5.20241 64.4567 5.7339 64.4567 6.36364C64.4567 6.99337 64.5608 7.52486 64.7692 7.9581C64.9799 8.39134 65.2628 8.71922 65.6179 8.94176C65.9754 9.1643 66.3743 9.27557 66.8146 9.27557C67.255 9.27557 67.6527 9.1643 68.0078 8.94176C68.3653 8.71922 68.6482 8.39134 68.8565 7.9581C69.0672 7.52486 69.1726 6.99337 69.1726 6.36364ZM71.5057 10V2.72727H75.8949V3.50852H72.3864V5.96591H75.6676V6.74716H72.3864V9.21875H75.9517V10H71.5057ZM86.4311 6.36364C86.4311 7.13068 86.2926 7.79356 86.0156 8.35227C85.7386 8.91098 85.3587 9.34186 84.8757 9.64489C84.3928 9.94792 83.8411 10.0994 83.2209 10.0994C82.6006 10.0994 82.049 9.94792 81.5661 9.64489C81.0831 9.34186 80.7031 8.91098 80.4261 8.35227C80.1491 7.79356 80.0107 7.13068 80.0107 6.36364C80.0107 5.59659 80.1491 4.93371 80.4261 4.375C80.7031 3.81629 81.0831 3.38542 81.5661 3.08239C82.049 2.77936 82.6006 2.62784 83.2209 2.62784C83.8411 2.62784 84.3928 2.77936 84.8757 3.08239C85.3587 3.38542 85.7386 3.81629 86.0156 4.375C86.2926 4.93371 86.4311 5.59659 86.4311 6.36364ZM85.5788 6.36364C85.5788 5.7339 85.4735 5.20241 85.2628 4.76918C85.0545 4.33594 84.7715 4.00805 84.4141 3.78551C84.0589 3.56297 83.6612 3.4517 83.2209 3.4517C82.7805 3.4517 82.3816 3.56297 82.0241 3.78551C81.669 4.00805 81.3861 4.33594 81.1754 4.76918C80.9671 5.20241 80.8629 5.7339 80.8629 6.36364C80.8629 6.99337 80.9671 7.52486 81.1754 7.9581C81.3861 8.39134 81.669 8.71922 82.0241 8.94176C82.3816 9.1643 82.7805 9.27557 83.2209 9.27557C83.6612 9.27557 84.0589 9.1643 84.4141 8.94176C84.7715 8.71922 85.0545 8.39134 85.2628 7.9581C85.4735 7.52486 85.5788 6.99337 85.5788 6.36364ZM87.9119 10V2.72727H92.3011V3.50852H88.7926V5.78125H90.6392C91.16 5.78125 91.5992 5.86648 91.9567 6.03693C92.3165 6.20739 92.5888 6.44768 92.7734 6.75781C92.9605 7.06795 93.054 7.43371 93.054 7.85511C93.054 8.27652 92.9605 8.6482 92.7734 8.97017C92.5888 9.29214 92.3165 9.54427 91.9567 9.72656C91.5992 9.90885 91.16 10 90.6392 10H87.9119ZM88.7926 9.23295H90.6392C90.9706 9.23295 91.2512 9.16667 91.4808 9.03409C91.7128 8.89915 91.888 8.72633 92.0064 8.51562C92.1271 8.30256 92.1875 8.07765 92.1875 7.84091C92.1875 7.4929 92.0537 7.19342 91.7862 6.94247C91.5187 6.68916 91.1364 6.5625 90.6392 6.5625H88.7926V9.23295ZM102.97 9.21875L102.87 11.7188H102.004V10H101.308V9.21875H102.97ZM94.5037 2.72727H95.3844V9.19034H97.9412V2.72727H98.8219V9.19034H101.379V2.72727H102.259V10H94.5037V2.72727ZM104.308 10V2.72727H108.698V3.50852H105.189V5.96591H108.47V6.74716H105.189V9.21875H108.754V10H104.308ZM116.137 5H115.257C115.204 4.74669 115.113 4.52415 114.983 4.33239C114.855 4.14062 114.699 3.97964 114.514 3.84943C114.332 3.71686 114.13 3.61742 113.907 3.55114C113.685 3.48485 113.453 3.4517 113.211 3.4517C112.771 3.4517 112.372 3.56297 112.014 3.78551C111.659 4.00805 111.376 4.33594 111.166 4.76918C110.957 5.20241 110.853 5.7339 110.853 6.36364C110.853 6.99337 110.957 7.52486 111.166 7.9581C111.376 8.39134 111.659 8.71922 112.014 8.94176C112.372 9.1643 112.771 9.27557 113.211 9.27557C113.453 9.27557 113.685 9.24242 113.907 9.17614C114.13 9.10985 114.332 9.0116 114.514 8.88139C114.699 8.74882 114.855 8.58665 114.983 8.39489C115.113 8.20076 115.204 7.97822 115.257 7.72727H116.137C116.071 8.09896 115.95 8.43158 115.775 8.72514C115.6 9.0187 115.382 9.26847 115.122 9.47443C114.861 9.67803 114.569 9.8331 114.244 9.93963C113.923 10.0462 113.578 10.0994 113.211 10.0994C112.591 10.0994 112.039 9.94792 111.556 9.64489C111.073 9.34186 110.693 8.91098 110.416 8.35227C110.139 7.79356 110.001 7.13068 110.001 6.36364C110.001 5.59659 110.139 4.93371 110.416 4.375C110.693 3.81629 111.073 3.38542 111.556 3.08239C112.039 2.77936 112.591 2.62784 113.211 2.62784C113.578 2.62784 113.923 2.68111 114.244 2.78764C114.569 2.89418 114.861 3.05043 115.122 3.25639C115.382 3.45999 115.6 3.70857 115.775 4.00213C115.95 4.29332 116.071 4.62595 116.137 5ZM117.163 3.50852V2.72727H122.617V3.50852H120.33V10H119.45V3.50852H117.163ZM123.976 10V2.72727H126.519C127.026 2.72727 127.443 2.81487 127.773 2.99006C128.102 3.16288 128.347 3.39607 128.508 3.68963C128.669 3.98082 128.749 4.30398 128.749 4.65909C128.749 4.97159 128.693 5.22964 128.582 5.43324C128.473 5.63684 128.329 5.79782 128.149 5.91619C127.971 6.03456 127.778 6.12216 127.57 6.17898V6.25C127.793 6.2642 128.016 6.34233 128.241 6.48438C128.466 6.62642 128.654 6.83002 128.806 7.09517C128.957 7.36032 129.033 7.68466 129.033 8.06818C129.033 8.43277 128.95 8.76065 128.785 9.05185C128.619 9.34304 128.357 9.57386 128 9.74432C127.642 9.91477 127.177 10 126.604 10H123.976ZM124.857 9.21875H126.604C127.18 9.21875 127.588 9.10748 127.829 8.88494C128.073 8.66004 128.195 8.38778 128.195 8.06818C128.195 7.82197 128.132 7.5947 128.007 7.38636C127.881 7.17566 127.703 7.00758 127.471 6.8821C127.239 6.75426 126.964 6.69034 126.647 6.69034H124.857V9.21875ZM124.857 5.9233H126.491C126.756 5.9233 126.995 5.87121 127.208 5.76705C127.423 5.66288 127.594 5.5161 127.719 5.3267C127.847 5.13731 127.911 4.91477 127.911 4.65909C127.911 4.33949 127.8 4.06842 127.577 3.84588C127.355 3.62098 127.002 3.50852 126.519 3.50852H124.857V5.9233ZM136.617 6.36364C136.617 7.13068 136.478 7.79356 136.201 8.35227C135.924 8.91098 135.544 9.34186 135.061 9.64489C134.578 9.94792 134.027 10.0994 133.406 10.0994C132.786 10.0994 132.235 9.94792 131.752 9.64489C131.269 9.34186 130.889 8.91098 130.612 8.35227C130.335 7.79356 130.196 7.13068 130.196 6.36364C130.196 5.59659 130.335 4.93371 130.612 4.375C130.889 3.81629 131.269 3.38542 131.752 3.08239C132.235 2.77936 132.786 2.62784 133.406 2.62784C134.027 2.62784 134.578 2.77936 135.061 3.08239C135.544 3.38542 135.924 3.81629 136.201 4.375C136.478 4.93371 136.617 5.59659 136.617 6.36364ZM135.764 6.36364C135.764 5.7339 135.659 5.20241 135.448 4.76918C135.24 4.33594 134.957 4.00805 134.6 3.78551C134.244 3.56297 133.847 3.4517 133.406 3.4517C132.966 3.4517 132.567 3.56297 132.21 3.78551C131.855 4.00805 131.572 4.33594 131.361 4.76918C131.153 5.20241 131.048 5.7339 131.048 6.36364C131.048 6.99337 131.153 7.52486 131.361 7.9581C131.572 8.39134 131.855 8.71922 132.21 8.94176C132.567 9.1643 132.966 9.27557 133.406 9.27557C133.847 9.27557 134.244 9.1643 134.6 8.94176C134.957 8.71922 135.24 8.39134 135.448 7.9581C135.659 7.52486 135.764 6.99337 135.764 6.36364ZM141.521 2.72727V5.22727H140.74V2.72727H141.521ZM143.339 2.72727V5.22727H142.558V2.72727H143.339ZM144.943 2.72727H145.81V8.4517H145.881L149.858 2.72727H150.71V10H149.83V4.28977H149.759L145.795 10H144.943V2.72727ZM152.472 10V2.72727H154.93C155.5 2.72727 155.967 2.83026 156.329 3.03622C156.694 3.23982 156.963 3.51562 157.139 3.86364C157.314 4.21165 157.401 4.59991 157.401 5.02841C157.401 5.45691 157.314 5.84635 157.139 6.19673C156.966 6.54711 156.698 6.82647 156.336 7.0348C155.974 7.24077 155.51 7.34375 154.944 7.34375H153.183V6.5625H154.916C155.306 6.5625 155.62 6.49503 155.857 6.36009C156.093 6.22514 156.265 6.04285 156.372 5.81321C156.481 5.5812 156.535 5.3196 156.535 5.02841C156.535 4.73722 156.481 4.4768 156.372 4.24716C156.265 4.01752 156.092 3.83759 155.853 3.70739C155.614 3.57481 155.297 3.50852 154.901 3.50852H153.353V10H152.472ZM163.096 10L160.596 6.66193H159.701V10H158.82V2.72727H159.701V5.88068H160.084L162.996 2.72727H164.047L161.107 5.9233L164.147 10H163.096ZM165.669 10.0994V9.27557H166.123C166.298 9.27557 166.445 9.24124 166.563 9.17259C166.684 9.10393 166.784 9.01515 166.862 8.90625C166.942 8.79735 167.008 8.68371 167.061 8.56534L167.174 8.29545L164.66 2.72727H165.612L167.615 7.24432L169.447 2.72727H170.384L167.87 8.82102C167.771 9.0483 167.657 9.259 167.529 9.45312C167.404 9.64725 167.232 9.8035 167.014 9.92188C166.799 10.0402 166.507 10.0994 166.137 10.0994H165.669ZM171.586 3.50852V2.72727H177.041V3.50852H174.754V10H173.873V3.50852H171.586ZM183.95 5H183.069C183.017 4.74669 182.926 4.52415 182.796 4.33239C182.668 4.14062 182.512 3.97964 182.327 3.84943C182.145 3.71686 181.942 3.61742 181.72 3.55114C181.497 3.48485 181.265 3.4517 181.024 3.4517C180.583 3.4517 180.184 3.56297 179.827 3.78551C179.472 4.00805 179.189 4.33594 178.978 4.76918C178.77 5.20241 178.666 5.7339 178.666 6.36364C178.666 6.99337 178.77 7.52486 178.978 7.9581C179.189 8.39134 179.472 8.71922 179.827 8.94176C180.184 9.1643 180.583 9.27557 181.024 9.27557C181.265 9.27557 181.497 9.24242 181.72 9.17614C181.942 9.10985 182.145 9.0116 182.327 8.88139C182.512 8.74882 182.668 8.58665 182.796 8.39489C182.926 8.20076 183.017 7.97822 183.069 7.72727H183.95C183.883 8.09896 183.763 8.43158 183.588 8.72514C183.412 9.0187 183.195 9.26847 182.934 9.47443C182.674 9.67803 182.381 9.8331 182.057 9.93963C181.735 10.0462 181.391 10.0994 181.024 10.0994C180.403 10.0994 179.852 9.94792 179.369 9.64489C178.886 9.34186 178.506 8.91098 178.229 8.35227C177.952 7.79356 177.813 7.13068 177.813 6.36364C177.813 5.59659 177.952 4.93371 178.229 4.375C178.506 3.81629 178.886 3.38542 179.369 3.08239C179.852 2.77936 180.403 2.62784 181.024 2.62784C181.391 2.62784 181.735 2.68111 182.057 2.78764C182.381 2.89418 182.674 3.05043 182.934 3.25639C183.195 3.45999 183.412 3.70857 183.588 4.00213C183.763 4.29332 183.883 4.62595 183.95 5ZM189.648 10L187.148 6.66193H186.254V10H185.373V2.72727H186.254V5.88068H186.637L189.549 2.72727H190.6L187.66 5.9233L190.7 10H189.648ZM191.838 2.72727H192.704V8.4517H192.775L196.752 2.72727H197.605V10H196.724V4.28977H196.653L192.69 10H191.838V2.72727ZM199.367 2.72727H200.233V8.4517H200.305L204.282 2.72727H205.134V10H204.253V4.28977H204.182L200.219 10H199.367V2.72727ZM202.947 0.909091H203.728C203.728 1.29261 203.595 1.6063 203.33 1.85014C203.065 2.09399 202.705 2.21591 202.251 2.21591C201.803 2.21591 201.447 2.09399 201.182 1.85014C200.919 1.6063 200.787 1.29261 200.787 0.909091H201.569C201.569 1.09375 201.62 1.25592 201.721 1.3956C201.826 1.53527 202.002 1.60511 202.251 1.60511C202.499 1.60511 202.677 1.53527 202.783 1.3956C202.892 1.25592 202.947 1.09375 202.947 0.909091ZM212.038 10.0994C211.57 10.0994 211.152 10.0189 210.785 9.85795C210.42 9.69697 210.13 9.47325 209.915 9.18679C209.702 8.89796 209.586 8.56297 209.567 8.18182H210.462C210.481 8.41619 210.561 8.61861 210.703 8.78906C210.845 8.95715 211.031 9.08736 211.261 9.17969C211.49 9.27202 211.745 9.31818 212.024 9.31818C212.337 9.31818 212.614 9.26373 212.855 9.15483C213.097 9.04593 213.286 8.89441 213.423 8.70028C213.561 8.50616 213.629 8.28125 213.629 8.02557C213.629 7.75805 213.563 7.52249 213.43 7.31889C213.298 7.11293 213.104 6.95194 212.848 6.83594C212.592 6.71993 212.28 6.66193 211.911 6.66193H211.328V5.88068H211.911C212.199 5.88068 212.453 5.8286 212.67 5.72443C212.891 5.62026 213.062 5.47348 213.185 5.28409C213.311 5.0947 213.374 4.87216 213.374 4.61648C213.374 4.37026 213.319 4.15601 213.21 3.97372C213.101 3.79143 212.947 3.64938 212.749 3.54759C212.552 3.44579 212.32 3.39489 212.053 3.39489C211.802 3.39489 211.565 3.44105 211.342 3.53338C211.122 3.62334 210.942 3.75473 210.803 3.92756C210.663 4.09801 210.587 4.30398 210.575 4.54545H209.723C209.737 4.1643 209.852 3.83049 210.067 3.54403C210.283 3.25521 210.565 3.0303 210.913 2.86932C211.263 2.70833 211.648 2.62784 212.067 2.62784C212.517 2.62784 212.902 2.71899 213.224 2.90128C213.546 3.0812 213.794 3.31913 213.967 3.61506C214.139 3.91098 214.226 4.23059 214.226 4.57386C214.226 4.98343 214.118 5.33262 213.903 5.62145C213.69 5.91027 213.4 6.11032 213.033 6.22159V6.27841C213.492 6.35417 213.851 6.54948 214.109 6.86435C214.367 7.17685 214.496 7.56392 214.496 8.02557C214.496 8.42093 214.388 8.77604 214.173 9.09091C213.96 9.40341 213.668 9.64962 213.299 9.82955C212.93 10.0095 212.509 10.0994 212.038 10.0994ZM216.374 10H215.451L218.121 2.72727H219.031L221.701 10H220.778L218.604 3.87784H218.548L216.374 10ZM216.715 7.15909H220.437V7.94034H216.715V7.15909ZM222.834 10V2.72727H225.376C225.883 2.72727 226.301 2.81487 226.63 2.99006C226.959 3.16288 227.204 3.39607 227.365 3.68963C227.526 3.98082 227.607 4.30398 227.607 4.65909C227.607 4.97159 227.551 5.22964 227.44 5.43324C227.331 5.63684 227.186 5.79782 227.006 5.91619C226.829 6.03456 226.636 6.12216 226.428 6.17898V6.25C226.65 6.2642 226.874 6.34233 227.099 6.48438C227.324 6.62642 227.512 6.83002 227.663 7.09517C227.815 7.36032 227.891 7.68466 227.891 8.06818C227.891 8.43277 227.808 8.76065 227.642 9.05185C227.476 9.34304 227.215 9.57386 226.857 9.74432C226.5 9.91477 226.035 10 225.462 10H222.834ZM223.714 9.21875H225.462C226.037 9.21875 226.445 9.10748 226.687 8.88494C226.931 8.66004 227.053 8.38778 227.053 8.06818C227.053 7.82197 226.99 7.5947 226.864 7.38636C226.739 7.17566 226.56 7.00758 226.328 6.8821C226.096 6.75426 225.821 6.69034 225.504 6.69034H223.714V9.21875ZM223.714 5.9233H225.348C225.613 5.9233 225.852 5.87121 226.065 5.76705C226.281 5.66288 226.451 5.5161 226.577 5.3267C226.705 5.13731 226.768 4.91477 226.768 4.65909C226.768 4.33949 226.657 4.06842 226.435 3.84588C226.212 3.62098 225.859 3.50852 225.376 3.50852H223.714V5.9233ZM235.474 6.36364C235.474 7.13068 235.336 7.79356 235.059 8.35227C234.782 8.91098 234.402 9.34186 233.919 9.64489C233.436 9.94792 232.884 10.0994 232.264 10.0994C231.644 10.0994 231.092 9.94792 230.609 9.64489C230.126 9.34186 229.746 8.91098 229.469 8.35227C229.192 7.79356 229.054 7.13068 229.054 6.36364C229.054 5.59659 229.192 4.93371 229.469 4.375C229.746 3.81629 230.126 3.38542 230.609 3.08239C231.092 2.77936 231.644 2.62784 232.264 2.62784C232.884 2.62784 233.436 2.77936 233.919 3.08239C234.402 3.38542 234.782 3.81629 235.059 4.375C235.336 4.93371 235.474 5.59659 235.474 6.36364ZM234.622 6.36364C234.622 5.7339 234.516 5.20241 234.306 4.76918C234.097 4.33594 233.815 4.00805 233.457 3.78551C233.102 3.56297 232.704 3.4517 232.264 3.4517C231.824 3.4517 231.425 3.56297 231.067 3.78551C230.712 4.00805 230.429 4.33594 230.218 4.76918C230.01 5.20241 229.906 5.7339 229.906 6.36364C229.906 6.99337 230.01 7.52486 230.218 7.9581C230.429 8.39134 230.712 8.71922 231.067 8.94176C231.425 9.1643 231.824 9.27557 232.264 9.27557C232.704 9.27557 233.102 9.1643 233.457 8.94176C233.815 8.71922 234.097 8.39134 234.306 7.9581C234.516 7.52486 234.622 6.99337 234.622 6.36364ZM236.33 11.7614V9.21875H236.799C236.96 9.07197 237.111 8.86482 237.253 8.5973C237.398 8.32741 237.52 7.96757 237.619 7.51776C237.721 7.06558 237.788 6.49148 237.821 5.79545L237.978 2.72727H242.296V9.21875H243.134V11.7472H242.296V10H237.168V11.7614H236.33ZM237.85 9.21875H241.458V3.50852H238.773L238.659 5.79545C238.631 6.32576 238.581 6.80634 238.51 7.23722C238.439 7.66572 238.348 8.04569 238.237 8.37713C238.126 8.7062 237.997 8.98674 237.85 9.21875ZM247.277 10V2.72727H249.735C250.305 2.72727 250.771 2.83026 251.134 3.03622C251.498 3.23982 251.768 3.51562 251.943 3.86364C252.119 4.21165 252.206 4.59991 252.206 5.02841C252.206 5.45691 252.119 5.84635 251.943 6.19673C251.771 6.54711 251.503 6.82647 251.141 7.0348C250.779 7.24077 250.315 7.34375 249.749 7.34375H247.987V6.5625H249.72C250.111 6.5625 250.425 6.49503 250.661 6.36009C250.898 6.22514 251.07 6.04285 251.176 5.81321C251.285 5.5812 251.34 5.3196 251.34 5.02841C251.34 4.73722 251.285 4.4768 251.176 4.24716C251.07 4.01752 250.897 3.83759 250.658 3.70739C250.419 3.57481 250.102 3.50852 249.706 3.50852H248.158V10H247.277ZM259.761 6.36364C259.761 7.13068 259.623 7.79356 259.346 8.35227C259.069 8.91098 258.689 9.34186 258.206 9.64489C257.723 9.94792 257.171 10.0994 256.551 10.0994C255.931 10.0994 255.379 9.94792 254.896 9.64489C254.413 9.34186 254.033 8.91098 253.756 8.35227C253.479 7.79356 253.341 7.13068 253.341 6.36364C253.341 5.59659 253.479 4.93371 253.756 4.375C254.033 3.81629 254.413 3.38542 254.896 3.08239C255.379 2.77936 255.931 2.62784 256.551 2.62784C257.171 2.62784 257.723 2.77936 258.206 3.08239C258.689 3.38542 259.069 3.81629 259.346 4.375C259.623 4.93371 259.761 5.59659 259.761 6.36364ZM258.909 6.36364C258.909 5.7339 258.804 5.20241 258.593 4.76918C258.385 4.33594 258.102 4.00805 257.744 3.78551C257.389 3.56297 256.991 3.4517 256.551 3.4517C256.111 3.4517 255.712 3.56297 255.354 3.78551C254.999 4.00805 254.716 4.33594 254.506 4.76918C254.297 5.20241 254.193 5.7339 254.193 6.36364C254.193 6.99337 254.297 7.52486 254.506 7.9581C254.716 8.39134 254.999 8.71922 255.354 8.94176C255.712 9.1643 256.111 9.27557 256.551 9.27557C256.991 9.27557 257.389 9.1643 257.744 8.94176C258.102 8.71922 258.385 8.39134 258.593 7.9581C258.804 7.52486 258.909 6.99337 258.909 6.36364ZM263.572 10.0994C263.103 10.0994 262.685 10.0189 262.318 9.85795C261.953 9.69697 261.663 9.47325 261.448 9.18679C261.235 8.89796 261.119 8.56297 261.1 8.18182H261.995C262.014 8.41619 262.094 8.61861 262.236 8.78906C262.378 8.95715 262.564 9.08736 262.794 9.17969C263.023 9.27202 263.278 9.31818 263.557 9.31818C263.87 9.31818 264.147 9.26373 264.388 9.15483C264.63 9.04593 264.819 8.89441 264.956 8.70028C265.094 8.50616 265.162 8.28125 265.162 8.02557C265.162 7.75805 265.096 7.52249 264.964 7.31889C264.831 7.11293 264.637 6.95194 264.381 6.83594C264.126 6.71993 263.813 6.66193 263.444 6.66193H262.861V5.88068H263.444C263.733 5.88068 263.986 5.8286 264.204 5.72443C264.424 5.62026 264.595 5.47348 264.719 5.28409C264.844 5.0947 264.907 4.87216 264.907 4.61648C264.907 4.37026 264.852 4.15601 264.743 3.97372C264.635 3.79143 264.481 3.64938 264.282 3.54759C264.085 3.44579 263.853 3.39489 263.586 3.39489C263.335 3.39489 263.098 3.44105 262.876 3.53338C262.655 3.62334 262.475 3.75473 262.336 3.92756C262.196 4.09801 262.12 4.30398 262.108 4.54545H261.256C261.27 4.1643 261.385 3.83049 261.601 3.54403C261.816 3.25521 262.098 3.0303 262.446 2.86932C262.796 2.70833 263.181 2.62784 263.6 2.62784C264.05 2.62784 264.436 2.71899 264.758 2.90128C265.08 3.0812 265.327 3.31913 265.5 3.61506C265.673 3.91098 265.759 4.23059 265.759 4.57386C265.759 4.98343 265.651 5.33262 265.436 5.62145C265.223 5.91027 264.933 6.11032 264.566 6.22159V6.27841C265.025 6.35417 265.384 6.54948 265.642 6.86435C265.9 7.17685 266.029 7.56392 266.029 8.02557C266.029 8.42093 265.921 8.77604 265.706 9.09091C265.493 9.40341 265.202 9.64962 264.832 9.82955C264.463 10.0095 264.043 10.0994 263.572 10.0994ZM266.984 10V9.19034H267.197C267.5 9.19034 267.736 9.09328 267.904 8.89915C268.072 8.70502 268.193 8.39134 268.266 7.9581C268.342 7.52486 268.393 6.95076 268.419 6.2358L268.547 2.72727H272.979V10H272.098V3.50852H269.385L269.271 6.40625C269.243 7.16856 269.173 7.81723 269.062 8.35227C268.95 8.88731 268.755 9.29569 268.476 9.57741C268.196 9.85914 267.789 10 267.254 10H266.984ZM274.738 2.72727H275.605V8.4517H275.676L279.653 2.72727H280.505V10H279.624V4.28977H279.553L275.59 10H274.738V2.72727ZM282.267 10V2.72727H284.81C285.317 2.72727 285.734 2.81487 286.064 2.99006C286.393 3.16288 286.638 3.39607 286.799 3.68963C286.96 3.98082 287.04 4.30398 287.04 4.65909C287.04 4.97159 286.984 5.22964 286.873 5.43324C286.764 5.63684 286.62 5.79782 286.44 5.91619C286.262 6.03456 286.069 6.12216 285.861 6.17898V6.25C286.084 6.2642 286.307 6.34233 286.532 6.48438C286.757 6.62642 286.945 6.83002 287.097 7.09517C287.248 7.36032 287.324 7.68466 287.324 8.06818C287.324 8.43277 287.241 8.76065 287.076 9.05185C286.91 9.34304 286.648 9.57386 286.291 9.74432C285.933 9.91477 285.468 10 284.895 10H282.267ZM283.148 9.21875H284.895C285.471 9.21875 285.879 9.10748 286.12 8.88494C286.364 8.66004 286.486 8.38778 286.486 8.06818C286.486 7.82197 286.423 7.5947 286.298 7.38636C286.172 7.17566 285.994 7.00758 285.762 6.8821C285.53 6.75426 285.255 6.69034 284.938 6.69034H283.148V9.21875ZM283.148 5.9233H284.782C285.047 5.9233 285.286 5.87121 285.499 5.76705C285.714 5.66288 285.885 5.5161 286.01 5.3267C286.138 5.13731 286.202 4.91477 286.202 4.65909C286.202 4.33949 286.091 4.06842 285.868 3.84588C285.646 3.62098 285.293 3.50852 284.81 3.50852H283.148V5.9233ZM289.07 10H288.146L290.817 2.72727H291.726L294.396 10H293.473L291.3 3.87784H291.243L289.07 10ZM289.411 7.15909H293.132V7.94034H289.411V7.15909ZM298.342 2.72727H299.393L301.864 8.7642H301.95L304.421 2.72727H305.472V10H304.648V4.47443H304.577L302.305 10H301.509L299.237 4.47443H299.165V10H298.342V2.72727ZM307.238 2.72727H308.105V8.4517H308.176L312.153 2.72727H313.005V10H312.124V4.28977H312.053L308.09 10H307.238V2.72727ZM314.767 10V2.72727H315.648V5.96591H319.526V2.72727H320.407V10H319.526V6.74716H315.648V10H314.767ZM322.17 10V2.72727H326.559V3.50852H323.05V5.96591H326.332V6.74716H323.05V9.21875H326.616V10H322.17ZM328.146 10V2.72727H330.604C331.174 2.72727 331.641 2.83026 332.003 3.03622C332.367 3.23982 332.637 3.51562 332.812 3.86364C332.988 4.21165 333.075 4.59991 333.075 5.02841C333.075 5.45691 332.988 5.84635 332.812 6.19673C332.64 6.54711 332.372 6.82647 332.01 7.0348C331.648 7.24077 331.184 7.34375 330.618 7.34375H328.857V6.5625H330.589C330.98 6.5625 331.294 6.49503 331.531 6.36009C331.767 6.22514 331.939 6.04285 332.045 5.81321C332.154 5.5812 332.209 5.3196 332.209 5.02841C332.209 4.73722 332.154 4.4768 332.045 4.24716C331.939 4.01752 331.766 3.83759 331.527 3.70739C331.288 3.57481 330.971 3.50852 330.575 3.50852H329.027V10H328.146ZM334.05 10H333.127L335.797 2.72727H336.706L339.377 10H338.453L336.28 3.87784H336.223L334.05 10ZM334.391 7.15909H338.113V7.94034H334.391V7.15909ZM339.885 10V9.19034H340.098C340.401 9.19034 340.636 9.09328 340.804 8.89915C340.972 8.70502 341.093 8.39134 341.167 7.9581C341.242 7.52486 341.293 6.95076 341.319 6.2358L341.447 2.72727H345.879V10H344.998V3.50852H342.285L342.172 6.40625C342.143 7.16856 342.073 7.81723 341.962 8.35227C341.851 8.88731 341.655 9.29569 341.376 9.57741C341.097 9.85914 340.69 10 340.154 10H339.885ZM348.292 5.78125H350.366C350.887 5.78125 351.326 5.86648 351.683 6.03693C352.043 6.20739 352.315 6.44768 352.5 6.75781C352.687 7.06795 352.781 7.43371 352.781 7.85511C352.781 8.27652 352.687 8.6482 352.5 8.97017C352.315 9.29214 352.043 9.54427 351.683 9.72656C351.326 9.90885 350.887 10 350.366 10H347.638V2.72727H348.519V9.23295H350.366C350.697 9.23295 350.978 9.16667 351.207 9.03409C351.439 8.89915 351.615 8.72633 351.733 8.51562C351.854 8.30256 351.914 8.07765 351.914 7.84091C351.914 7.4929 351.78 7.19342 351.513 6.94247C351.245 6.68916 350.863 6.5625 350.366 6.5625H348.292V5.78125ZM354.172 10V2.72727H355.052V5.96591H358.93V2.72727H359.811V10H358.93V6.74716H355.052V10H354.172ZM362.227 5.78125H364.301C364.822 5.78125 365.261 5.86648 365.619 6.03693C365.979 6.20739 366.251 6.44768 366.436 6.75781C366.623 7.06795 366.716 7.43371 366.716 7.85511C366.716 8.27652 366.623 8.6482 366.436 8.97017C366.251 9.29214 365.979 9.54427 365.619 9.72656C365.261 9.90885 364.822 10 364.301 10H361.574V2.72727H362.455V9.23295H364.301C364.633 9.23295 364.913 9.16667 365.143 9.03409C365.375 8.89915 365.55 8.72633 365.669 8.51562C365.789 8.30256 365.85 8.07765 365.85 7.84091C365.85 7.4929 365.716 7.19342 365.448 6.94247C365.181 6.68916 364.798 6.5625 364.301 6.5625H362.227V5.78125ZM368.307 2.72727V10H367.426V2.72727H368.307ZM370.496 2.72727L372.371 5.75284H372.428L374.303 2.72727H375.34L373.053 6.36364L375.34 10H374.303L372.428 7.03125H372.371L370.496 10H369.459L371.803 6.36364L369.459 2.72727H370.496ZM379.299 10V2.72727H381.841C382.348 2.72727 382.766 2.81487 383.095 2.99006C383.424 3.16288 383.669 3.39607 383.83 3.68963C383.991 3.98082 384.071 4.30398 384.071 4.65909C384.071 4.97159 384.016 5.22964 383.904 5.43324C383.796 5.63684 383.651 5.79782 383.471 5.91619C383.294 6.03456 383.101 6.12216 382.892 6.17898V6.25C383.115 6.2642 383.339 6.34233 383.564 6.48438C383.788 6.62642 383.977 6.83002 384.128 7.09517C384.28 7.36032 384.355 7.68466 384.355 8.06818C384.355 8.43277 384.273 8.76065 384.107 9.05185C383.941 9.34304 383.68 9.57386 383.322 9.74432C382.965 9.91477 382.499 10 381.926 10H379.299ZM380.179 9.21875H381.926C382.502 9.21875 382.91 9.10748 383.152 8.88494C383.395 8.66004 383.517 8.38778 383.517 8.06818C383.517 7.82197 383.455 7.5947 383.329 7.38636C383.204 7.17566 383.025 7.00758 382.793 6.8821C382.561 6.75426 382.286 6.69034 381.969 6.69034H380.179V9.21875ZM380.179 5.9233H381.813C382.078 5.9233 382.317 5.87121 382.53 5.76705C382.746 5.66288 382.916 5.5161 383.042 5.3267C383.169 5.13731 383.233 4.91477 383.233 4.65909C383.233 4.33949 383.122 4.06842 382.9 3.84588C382.677 3.62098 382.324 3.50852 381.841 3.50852H380.179V5.9233ZM391.939 6.36364C391.939 7.13068 391.8 7.79356 391.523 8.35227C391.246 8.91098 390.866 9.34186 390.384 9.64489C389.901 9.94792 389.349 10.0994 388.729 10.0994C388.108 10.0994 387.557 9.94792 387.074 9.64489C386.591 9.34186 386.211 8.91098 385.934 8.35227C385.657 7.79356 385.518 7.13068 385.518 6.36364C385.518 5.59659 385.657 4.93371 385.934 4.375C386.211 3.81629 386.591 3.38542 387.074 3.08239C387.557 2.77936 388.108 2.62784 388.729 2.62784C389.349 2.62784 389.901 2.77936 390.384 3.08239C390.866 3.38542 391.246 3.81629 391.523 4.375C391.8 4.93371 391.939 5.59659 391.939 6.36364ZM391.087 6.36364C391.087 5.7339 390.981 5.20241 390.771 4.76918C390.562 4.33594 390.279 4.00805 389.922 3.78551C389.567 3.56297 389.169 3.4517 388.729 3.4517C388.288 3.4517 387.889 3.56297 387.532 3.78551C387.177 4.00805 386.894 4.33594 386.683 4.76918C386.475 5.20241 386.371 5.7339 386.371 6.36364C386.371 6.99337 386.475 7.52486 386.683 7.9581C386.894 8.39134 387.177 8.71922 387.532 8.94176C387.889 9.1643 388.288 9.27557 388.729 9.27557C389.169 9.27557 389.567 9.1643 389.922 8.94176C390.279 8.71922 390.562 8.39134 390.771 7.9581C390.981 7.52486 391.087 6.99337 391.087 6.36364ZM392.795 11.7614V9.21875H393.263C393.424 9.07197 393.576 8.86482 393.718 8.5973C393.862 8.32741 393.984 7.96757 394.084 7.51776C394.186 7.06558 394.253 6.49148 394.286 5.79545L394.442 2.72727H398.761V9.21875H399.599V11.7472H398.761V10H393.633V11.7614H392.795ZM394.315 9.21875H397.923V3.50852H395.238L395.124 5.79545C395.096 6.32576 395.046 6.80634 394.975 7.23722C394.904 7.66572 394.813 8.04569 394.702 8.37713C394.59 8.7062 394.461 8.98674 394.315 9.21875ZM401.54 2.72727V5.22727H400.759V2.72727H401.54ZM403.358 2.72727V5.22727H402.577V2.72727H403.358ZM407.662 12.0455V4.54545H408.471V5.41193H408.571C408.632 5.31723 408.717 5.1965 408.826 5.04972C408.938 4.90057 409.096 4.76799 409.302 4.65199C409.511 4.53362 409.792 4.47443 410.147 4.47443C410.607 4.47443 411.011 4.58925 411.362 4.81889C411.712 5.04853 411.986 5.37405 412.182 5.79545C412.379 6.21686 412.477 6.71402 412.477 7.28693C412.477 7.86458 412.379 8.36529 412.182 8.78906C411.986 9.21046 411.713 9.53717 411.365 9.76918C411.017 9.99882 410.616 10.1136 410.162 10.1136C409.811 10.1136 409.531 10.0556 409.32 9.93963C409.109 9.82126 408.947 9.6875 408.833 9.53835C408.72 9.38684 408.632 9.26136 408.571 9.16193H408.5V12.0455H407.662ZM408.485 7.27273C408.485 7.68466 408.546 8.04806 408.667 8.36293C408.787 8.67543 408.964 8.92045 409.196 9.09801C409.428 9.2732 409.712 9.3608 410.048 9.3608C410.398 9.3608 410.691 9.26847 410.925 9.08381C411.162 8.89678 411.339 8.64583 411.458 8.33097C411.578 8.01373 411.639 7.66098 411.639 7.27273C411.639 6.8892 411.58 6.54356 411.461 6.2358C411.345 5.92566 411.169 5.68063 410.932 5.50071C410.698 5.31842 410.403 5.22727 410.048 5.22727C409.707 5.22727 409.421 5.31368 409.189 5.48651C408.957 5.65696 408.781 5.89607 408.663 6.20384C408.545 6.50923 408.485 6.86553 408.485 7.27273ZM415.36 10.1278C415.015 10.1278 414.701 10.0627 414.419 9.93253C414.138 9.79995 413.914 9.60938 413.748 9.3608C413.583 9.10985 413.5 8.80682 413.5 8.4517C413.5 8.1392 413.561 7.88589 413.684 7.69176C413.807 7.49527 413.972 7.34138 414.178 7.23011C414.384 7.11884 414.611 7.03598 414.86 6.98153C415.111 6.92472 415.363 6.87973 415.616 6.84659C415.948 6.80398 416.216 6.77202 416.422 6.75071C416.631 6.72704 416.782 6.68797 416.877 6.63352C416.974 6.57907 417.022 6.48437 417.022 6.34943V6.32102C417.022 5.97064 416.926 5.69839 416.735 5.50426C416.545 5.31013 416.258 5.21307 415.872 5.21307C415.472 5.21307 415.158 5.30066 414.931 5.47585C414.703 5.65104 414.544 5.83807 414.451 6.03693L413.656 5.75284C413.798 5.4214 413.987 5.16335 414.224 4.97869C414.463 4.79167 414.724 4.66146 415.005 4.58807C415.289 4.51231 415.569 4.47443 415.843 4.47443C416.019 4.47443 416.22 4.49574 416.447 4.53835C416.677 4.5786 416.898 4.66264 417.111 4.79048C417.327 4.91832 417.505 5.11127 417.647 5.36932C417.789 5.62737 417.86 5.97301 417.86 6.40625V10H417.022V9.26136H416.98C416.923 9.37973 416.828 9.50639 416.696 9.64134C416.563 9.77628 416.387 9.8911 416.167 9.9858C415.946 10.0805 415.678 10.1278 415.36 10.1278ZM415.488 9.375C415.82 9.375 416.099 9.3099 416.326 9.17969C416.556 9.04948 416.729 8.88139 416.845 8.67543C416.963 8.46946 417.022 8.25284 417.022 8.02557V7.25852C416.987 7.30114 416.909 7.3402 416.788 7.37571C416.67 7.40885 416.532 7.43845 416.376 7.46449C416.222 7.48816 416.072 7.50947 415.925 7.52841C415.781 7.54498 415.663 7.55919 415.574 7.57102C415.356 7.59943 415.152 7.6456 414.963 7.70952C414.776 7.77107 414.624 7.86458 414.508 7.99006C414.395 8.11316 414.338 8.28125 414.338 8.49432C414.338 8.78551 414.445 9.00568 414.661 9.15483C414.879 9.30161 415.154 9.375 415.488 9.375ZM423.438 2.5L423.865 3.01136C423.699 3.17235 423.507 3.2848 423.289 3.34872C423.071 3.41264 422.825 3.4517 422.551 3.46591C422.276 3.48011 421.971 3.49432 421.634 3.50852C421.256 3.52273 420.942 3.61506 420.693 3.78551C420.445 3.95597 420.253 4.20218 420.118 4.52415C419.983 4.84612 419.897 5.24148 419.859 5.71023H419.93C420.115 5.36932 420.37 5.11837 420.697 4.95739C421.024 4.7964 421.374 4.71591 421.748 4.71591C422.174 4.71591 422.558 4.81534 422.899 5.0142C423.24 5.21307 423.509 5.50781 423.708 5.89844C423.907 6.28906 424.007 6.77083 424.007 7.34375C424.007 7.9143 423.905 8.40672 423.701 8.82102C423.5 9.23532 423.217 9.55492 422.852 9.77983C422.49 10.0024 422.065 10.1136 421.578 10.1136C421.09 10.1136 420.663 9.99882 420.296 9.76918C419.929 9.53717 419.643 9.19389 419.44 8.73935C419.236 8.28243 419.134 7.7178 419.134 7.04545V6.46307C419.134 5.24858 419.34 4.32765 419.752 3.70028C420.167 3.07292 420.789 2.74858 421.62 2.72727C421.914 2.7178 422.175 2.71544 422.405 2.72017C422.635 2.72491 422.835 2.71425 423.005 2.68821C423.176 2.66217 423.32 2.59943 423.438 2.5ZM421.578 9.3608C421.907 9.3608 422.19 9.27794 422.426 9.11222C422.665 8.9465 422.849 8.7133 422.977 8.41264C423.105 8.10961 423.169 7.75331 423.169 7.34375C423.169 6.94602 423.103 6.60748 422.973 6.32812C422.845 6.04877 422.662 5.8357 422.423 5.68892C422.184 5.54214 421.897 5.46875 421.563 5.46875C421.32 5.46875 421.101 5.51018 420.906 5.59304C420.712 5.6759 420.547 5.79782 420.409 5.95881C420.272 6.11979 420.165 6.31629 420.09 6.5483C420.016 6.7803 419.977 7.04545 419.972 7.34375C419.972 7.95455 420.116 8.44342 420.402 8.81037C420.689 9.17732 421.08 9.3608 421.578 9.3608ZM427.504 10.1136C427.012 10.1136 426.58 9.99645 426.208 9.76207C425.839 9.5277 425.55 9.19981 425.342 8.77841C425.136 8.35701 425.033 7.86458 425.033 7.30114C425.033 6.73295 425.136 6.23698 425.342 5.81321C425.55 5.38944 425.839 5.06037 426.208 4.82599C426.58 4.59162 427.012 4.47443 427.504 4.47443C427.997 4.47443 428.428 4.59162 428.797 4.82599C429.169 5.06037 429.458 5.38944 429.664 5.81321C429.872 6.23698 429.976 6.73295 429.976 7.30114C429.976 7.86458 429.872 8.35701 429.664 8.77841C429.458 9.19981 429.169 9.5277 428.797 9.76207C428.428 9.99645 427.997 10.1136 427.504 10.1136ZM427.504 9.3608C427.878 9.3608 428.186 9.26491 428.428 9.07315C428.669 8.88139 428.848 8.62926 428.964 8.31676C429.08 8.00426 429.138 7.66572 429.138 7.30114C429.138 6.93655 429.08 6.59683 428.964 6.28196C428.848 5.96709 428.669 5.71259 428.428 5.51847C428.186 5.32434 427.878 5.22727 427.504 5.22727C427.13 5.22727 426.823 5.32434 426.581 5.51847C426.34 5.71259 426.161 5.96709 426.045 6.28196C425.929 6.59683 425.871 6.93655 425.871 7.30114C425.871 7.66572 425.929 8.00426 426.045 8.31676C426.161 8.62926 426.34 8.88139 426.581 9.07315C426.823 9.26491 427.13 9.3608 427.504 9.3608ZM430.542 5.3267V4.54545H434.974V5.3267H433.184V10H432.346V5.3267H430.542ZM437.519 10.1278C437.173 10.1278 436.859 10.0627 436.578 9.93253C436.296 9.79995 436.072 9.60938 435.906 9.3608C435.741 9.10985 435.658 8.80682 435.658 8.4517C435.658 8.1392 435.719 7.88589 435.843 7.69176C435.966 7.49527 436.13 7.34138 436.336 7.23011C436.542 7.11884 436.769 7.03598 437.018 6.98153C437.269 6.92472 437.521 6.87973 437.774 6.84659C438.106 6.80398 438.374 6.77202 438.58 6.75071C438.789 6.72704 438.94 6.68797 439.035 6.63352C439.132 6.57907 439.181 6.48437 439.181 6.34943V6.32102C439.181 5.97064 439.085 5.69839 438.893 5.50426C438.704 5.31013 438.416 5.21307 438.03 5.21307C437.63 5.21307 437.316 5.30066 437.089 5.47585C436.862 5.65104 436.702 5.83807 436.61 6.03693L435.814 5.75284C435.956 5.4214 436.146 5.16335 436.382 4.97869C436.621 4.79167 436.882 4.66146 437.164 4.58807C437.448 4.51231 437.727 4.47443 438.002 4.47443C438.177 4.47443 438.378 4.49574 438.605 4.53835C438.835 4.5786 439.056 4.66264 439.269 4.79048C439.485 4.91832 439.664 5.11127 439.806 5.36932C439.948 5.62737 440.019 5.97301 440.019 6.40625V10H439.181V9.26136H439.138C439.081 9.37973 438.986 9.50639 438.854 9.64134C438.721 9.77628 438.545 9.8911 438.325 9.9858C438.105 10.0805 437.836 10.1278 437.519 10.1278ZM437.646 9.375C437.978 9.375 438.257 9.3099 438.485 9.17969C438.714 9.04948 438.887 8.88139 439.003 8.67543C439.121 8.46946 439.181 8.25284 439.181 8.02557V7.25852C439.145 7.30114 439.067 7.3402 438.946 7.37571C438.828 7.40885 438.691 7.43845 438.534 7.46449C438.38 7.48816 438.23 7.50947 438.083 7.52841C437.939 7.54498 437.822 7.55919 437.732 7.57102C437.514 7.59943 437.31 7.6456 437.121 7.70952C436.934 7.77107 436.782 7.86458 436.666 7.99006C436.553 8.11316 436.496 8.28125 436.496 8.49432C436.496 8.78551 436.604 9.00568 436.819 9.15483C437.037 9.30161 437.313 9.375 437.646 9.375ZM443.835 10.1136C443.31 10.1136 442.856 9.99763 442.475 9.76562C442.096 9.53125 441.804 9.20455 441.598 8.78551C441.394 8.36411 441.293 7.87405 441.293 7.31534C441.293 6.75663 441.394 6.2642 441.598 5.83807C441.804 5.40956 442.09 5.07576 442.457 4.83665C442.827 4.59517 443.258 4.47443 443.75 4.47443C444.034 4.47443 444.315 4.52178 444.592 4.61648C444.869 4.71117 445.121 4.86506 445.348 5.07812C445.575 5.28883 445.756 5.56818 445.891 5.91619C446.026 6.2642 446.094 6.69271 446.094 7.2017V7.55682H441.889V6.83239H445.241C445.241 6.52462 445.18 6.25 445.057 6.00852C444.936 5.76705 444.763 5.57647 444.538 5.43679C444.316 5.29711 444.053 5.22727 443.75 5.22727C443.416 5.22727 443.127 5.31013 442.884 5.47585C442.642 5.6392 442.456 5.85227 442.326 6.11506C442.196 6.37784 442.131 6.65956 442.131 6.96023V7.44318C442.131 7.85511 442.202 8.20431 442.344 8.49077C442.488 8.77486 442.688 8.99148 442.944 9.14062C443.2 9.28741 443.497 9.3608 443.835 9.3608C444.055 9.3608 444.254 9.33002 444.432 9.26847C444.612 9.20455 444.767 9.10985 444.897 8.98438C445.027 8.85653 445.128 8.69792 445.199 8.50852L446.009 8.7358C445.923 9.01042 445.78 9.25189 445.579 9.46023C445.378 9.66619 445.129 9.82718 444.833 9.94318C444.537 10.0568 444.205 10.1136 443.835 10.1136ZM446.861 5.3267V4.54545H451.293V5.3267H449.503V10H448.665V5.3267H446.861ZM455.328 10V4.54545H459.617V10H458.779V5.3267H456.166V10H455.328ZM463.364 10.1136C462.871 10.1136 462.439 9.99645 462.068 9.76207C461.698 9.5277 461.41 9.19981 461.201 8.77841C460.995 8.35701 460.892 7.86458 460.892 7.30114C460.892 6.73295 460.995 6.23698 461.201 5.81321C461.41 5.38944 461.698 5.06037 462.068 4.82599C462.439 4.59162 462.871 4.47443 463.364 4.47443C463.856 4.47443 464.287 4.59162 464.656 4.82599C465.028 5.06037 465.317 5.38944 465.523 5.81321C465.731 6.23698 465.835 6.73295 465.835 7.30114C465.835 7.86458 465.731 8.35701 465.523 8.77841C465.317 9.19981 465.028 9.5277 464.656 9.76207C464.287 9.99645 463.856 10.1136 463.364 10.1136ZM463.364 9.3608C463.738 9.3608 464.046 9.26491 464.287 9.07315C464.529 8.88139 464.707 8.62926 464.823 8.31676C464.939 8.00426 464.997 7.66572 464.997 7.30114C464.997 6.93655 464.939 6.59683 464.823 6.28196C464.707 5.96709 464.529 5.71259 464.287 5.51847C464.046 5.32434 463.738 5.22727 463.364 5.22727C462.99 5.22727 462.682 5.32434 462.441 5.51847C462.199 5.71259 462.02 5.96709 461.904 6.28196C461.788 6.59683 461.73 6.93655 461.73 7.30114C461.73 7.66572 461.788 8.00426 461.904 8.31676C462.02 8.62926 462.199 8.88139 462.441 9.07315C462.682 9.26491 462.99 9.3608 463.364 9.3608ZM466.532 11.5625V9.21875H466.987C467.098 9.10275 467.194 8.97727 467.275 8.84233C467.355 8.70739 467.425 8.54759 467.484 8.36293C467.546 8.1759 467.598 7.94863 467.64 7.68111C467.683 7.41122 467.721 7.0857 467.754 6.70455L467.939 4.54545H471.404V9.21875H472.243V11.5625H471.404V10H467.37V11.5625H466.532ZM467.939 9.21875H470.566V5.3267H468.72L468.578 6.70455C468.519 7.27509 468.445 7.77344 468.358 8.19957C468.27 8.62571 468.13 8.96544 467.939 9.21875ZM480.216 2.5L480.642 3.01136C480.476 3.17235 480.284 3.2848 480.067 3.34872C479.849 3.41264 479.603 3.4517 479.328 3.46591C479.053 3.48011 478.748 3.49432 478.412 3.50852C478.033 3.52273 477.719 3.61506 477.471 3.78551C477.222 3.95597 477.03 4.20218 476.895 4.52415C476.76 4.84612 476.674 5.24148 476.636 5.71023H476.707C476.892 5.36932 477.148 5.11837 477.474 4.95739C477.801 4.7964 478.151 4.71591 478.525 4.71591C478.952 4.71591 479.335 4.81534 479.676 5.0142C480.017 5.21307 480.287 5.50781 480.486 5.89844C480.684 6.28906 480.784 6.77083 480.784 7.34375C480.784 7.9143 480.682 8.40672 480.479 8.82102C480.277 9.23532 479.994 9.55492 479.63 9.77983C479.268 10.0024 478.843 10.1136 478.355 10.1136C477.867 10.1136 477.44 9.99882 477.073 9.76918C476.706 9.53717 476.421 9.19389 476.217 8.73935C476.014 8.28243 475.912 7.7178 475.912 7.04545V6.46307C475.912 5.24858 476.118 4.32765 476.53 3.70028C476.944 3.07292 477.567 2.74858 478.398 2.72727C478.691 2.7178 478.953 2.71544 479.182 2.72017C479.412 2.72491 479.612 2.71425 479.782 2.68821C479.953 2.66217 480.097 2.59943 480.216 2.5ZM478.355 9.3608C478.684 9.3608 478.967 9.27794 479.204 9.11222C479.443 8.9465 479.626 8.7133 479.754 8.41264C479.882 8.10961 479.946 7.75331 479.946 7.34375C479.946 6.94602 479.881 6.60748 479.751 6.32812C479.623 6.04877 479.439 5.8357 479.2 5.68892C478.961 5.54214 478.675 5.46875 478.341 5.46875C478.097 5.46875 477.878 5.51018 477.684 5.59304C477.49 5.6759 477.324 5.79782 477.187 5.95881C477.049 6.11979 476.943 6.31629 476.867 6.5483C476.794 6.7803 476.755 7.04545 476.75 7.34375C476.75 7.95455 476.893 8.44342 477.18 8.81037C477.466 9.17732 477.858 9.3608 478.355 9.3608ZM482.066 12.0455V4.54545H482.876V5.41193H482.975C483.037 5.31723 483.122 5.1965 483.231 5.04972C483.342 4.90057 483.501 4.76799 483.706 4.65199C483.915 4.53362 484.197 4.47443 484.552 4.47443C485.011 4.47443 485.416 4.58925 485.766 4.81889C486.117 5.04853 486.39 5.37405 486.586 5.79545C486.783 6.21686 486.881 6.71402 486.881 7.28693C486.881 7.86458 486.783 8.36529 486.586 8.78906C486.39 9.21046 486.118 9.53717 485.77 9.76918C485.422 9.99882 485.02 10.1136 484.566 10.1136C484.215 10.1136 483.935 10.0556 483.724 9.93963C483.514 9.82126 483.351 9.6875 483.238 9.53835C483.124 9.38684 483.037 9.26136 482.975 9.16193H482.904V12.0455H482.066ZM482.89 7.27273C482.89 7.68466 482.95 8.04806 483.071 8.36293C483.192 8.67543 483.368 8.92045 483.6 9.09801C483.832 9.2732 484.116 9.3608 484.452 9.3608C484.803 9.3608 485.095 9.26847 485.329 9.08381C485.566 8.89678 485.744 8.64583 485.862 8.33097C485.983 8.01373 486.043 7.66098 486.043 7.27273C486.043 6.8892 485.984 6.54356 485.866 6.2358C485.75 5.92566 485.573 5.68063 485.336 5.50071C485.102 5.31842 484.807 5.22727 484.452 5.22727C484.111 5.22727 483.825 5.31368 483.593 5.48651C483.361 5.65696 483.186 5.89607 483.067 6.20384C482.949 6.50923 482.89 6.86553 482.89 7.27273ZM490.447 10.1136C489.921 10.1136 489.468 9.99763 489.086 9.76562C488.708 9.53125 488.415 9.20455 488.209 8.78551C488.006 8.36411 487.904 7.87405 487.904 7.31534C487.904 6.75663 488.006 6.2642 488.209 5.83807C488.415 5.40956 488.702 5.07576 489.069 4.83665C489.438 4.59517 489.869 4.47443 490.361 4.47443C490.645 4.47443 490.926 4.52178 491.203 4.61648C491.48 4.71117 491.732 4.86506 491.959 5.07812C492.187 5.28883 492.368 5.56818 492.503 5.91619C492.638 6.2642 492.705 6.69271 492.705 7.2017V7.55682H488.501V6.83239H491.853C491.853 6.52462 491.791 6.25 491.668 6.00852C491.547 5.76705 491.375 5.57647 491.15 5.43679C490.927 5.29711 490.664 5.22727 490.361 5.22727C490.028 5.22727 489.739 5.31013 489.495 5.47585C489.253 5.6392 489.068 5.85227 488.937 6.11506C488.807 6.37784 488.742 6.65956 488.742 6.96023V7.44318C488.742 7.85511 488.813 8.20431 488.955 8.49077C489.099 8.77486 489.3 8.99148 489.555 9.14062C489.811 9.28741 490.108 9.3608 490.447 9.3608C490.667 9.3608 490.866 9.33002 491.043 9.26847C491.223 9.20455 491.378 9.10985 491.508 8.98438C491.639 8.85653 491.739 8.69792 491.81 8.50852L492.62 8.7358C492.535 9.01042 492.391 9.25189 492.19 9.46023C491.989 9.66619 491.74 9.82718 491.444 9.94318C491.148 10.0568 490.816 10.1136 490.447 10.1136ZM497.631 6.8892V7.67045H494.619V6.8892H497.631ZM494.818 4.54545V10H493.98V4.54545H494.818ZM498.27 4.54545V10H497.432V4.54545H498.27ZM499.218 11.5625V9.21875H499.672C499.784 9.10275 499.88 8.97727 499.96 8.84233C500.041 8.70739 500.11 8.54759 500.17 8.36293C500.231 8.1759 500.283 7.94863 500.326 7.68111C500.368 7.41122 500.406 7.0857 500.439 6.70455L500.624 4.54545H504.09V9.21875H504.928V11.5625H504.09V10H500.056V11.5625H499.218ZM500.624 9.21875H503.252V5.3267H501.405L501.263 6.70455C501.204 7.27509 501.131 7.77344 501.043 8.19957C500.956 8.62571 500.816 8.96544 500.624 9.21875ZM508.256 10.1136C507.764 10.1136 507.332 9.99645 506.96 9.76207C506.591 9.5277 506.302 9.19981 506.094 8.77841C505.888 8.35701 505.785 7.86458 505.785 7.30114C505.785 6.73295 505.888 6.23698 506.094 5.81321C506.302 5.38944 506.591 5.06037 506.96 4.82599C507.332 4.59162 507.764 4.47443 508.256 4.47443C508.749 4.47443 509.18 4.59162 509.549 4.82599C509.921 5.06037 510.21 5.38944 510.415 5.81321C510.624 6.23698 510.728 6.73295 510.728 7.30114C510.728 7.86458 510.624 8.35701 510.415 8.77841C510.21 9.19981 509.921 9.5277 509.549 9.76207C509.18 9.99645 508.749 10.1136 508.256 10.1136ZM508.256 9.3608C508.63 9.3608 508.938 9.26491 509.18 9.07315C509.421 8.88139 509.6 8.62926 509.716 8.31676C509.832 8.00426 509.89 7.66572 509.89 7.30114C509.89 6.93655 509.832 6.59683 509.716 6.28196C509.6 5.96709 509.421 5.71259 509.18 5.51847C508.938 5.32434 508.63 5.22727 508.256 5.22727C507.882 5.22727 507.575 5.32434 507.333 5.51847C507.092 5.71259 506.913 5.96709 506.797 6.28196C506.681 6.59683 506.623 6.93655 506.623 7.30114C506.623 7.66572 506.681 8.00426 506.797 8.31676C506.913 8.62926 507.092 8.88139 507.333 9.07315C507.575 9.26491 507.882 9.3608 508.256 9.3608ZM514.99 8.86364L516.894 4.54545H517.689L515.331 10H514.649L512.334 4.54545H513.115L514.99 8.86364ZM512.845 4.54545V10H512.007V4.54545H512.845ZM517.135 10V4.54545H517.973V10H517.135ZM522.433 10V2.72727H526.823V3.50852H523.314V5.78125H525.161C525.682 5.78125 526.121 5.86648 526.478 6.03693C526.838 6.20739 527.11 6.44768 527.295 6.75781C527.482 7.06795 527.575 7.43371 527.575 7.85511C527.575 8.27652 527.482 8.6482 527.295 8.97017C527.11 9.29214 526.838 9.54427 526.478 9.72656C526.121 9.90885 525.682 10 525.161 10H522.433ZM523.314 9.23295H525.161C525.492 9.23295 525.773 9.16667 526.002 9.03409C526.234 8.89915 526.41 8.72633 526.528 8.51562C526.649 8.30256 526.709 8.07765 526.709 7.84091C526.709 7.4929 526.575 7.19342 526.308 6.94247C526.04 6.68916 525.658 6.5625 525.161 6.5625H523.314V9.23295ZM530.517 10.1278C530.171 10.1278 529.857 10.0627 529.576 9.93253C529.294 9.79995 529.07 9.60938 528.904 9.3608C528.739 9.10985 528.656 8.80682 528.656 8.4517C528.656 8.1392 528.717 7.88589 528.841 7.69176C528.964 7.49527 529.128 7.34138 529.334 7.23011C529.54 7.11884 529.767 7.03598 530.016 6.98153C530.267 6.92472 530.519 6.87973 530.772 6.84659C531.104 6.80398 531.373 6.77202 531.578 6.75071C531.787 6.72704 531.938 6.68797 532.033 6.63352C532.13 6.57907 532.179 6.48437 532.179 6.34943V6.32102C532.179 5.97064 532.083 5.69839 531.891 5.50426C531.702 5.31013 531.414 5.21307 531.028 5.21307C530.628 5.21307 530.314 5.30066 530.087 5.47585C529.86 5.65104 529.7 5.83807 529.608 6.03693L528.812 5.75284C528.954 5.4214 529.144 5.16335 529.38 4.97869C529.619 4.79167 529.88 4.66146 530.162 4.58807C530.446 4.51231 530.725 4.47443 531 4.47443C531.175 4.47443 531.376 4.49574 531.603 4.53835C531.833 4.5786 532.054 4.66264 532.267 4.79048C532.483 4.91832 532.662 5.11127 532.804 5.36932C532.946 5.62737 533.017 5.97301 533.017 6.40625V10H532.179V9.26136H532.136C532.079 9.37973 531.984 9.50639 531.852 9.64134C531.719 9.77628 531.543 9.8911 531.323 9.9858C531.103 10.0805 530.834 10.1278 530.517 10.1278ZM530.645 9.375C530.976 9.375 531.255 9.3099 531.483 9.17969C531.712 9.04948 531.885 8.88139 532.001 8.67543C532.119 8.46946 532.179 8.25284 532.179 8.02557V7.25852C532.143 7.30114 532.065 7.3402 531.944 7.37571C531.826 7.40885 531.689 7.43845 531.532 7.46449C531.378 7.48816 531.228 7.50947 531.081 7.52841C530.937 7.54498 530.82 7.55919 530.73 7.57102C530.512 7.59943 530.308 7.6456 530.119 7.70952C529.932 7.77107 529.78 7.86458 529.664 7.99006C529.551 8.11316 529.494 8.28125 529.494 8.49432C529.494 8.78551 529.602 9.00568 529.817 9.15483C530.035 9.30161 530.311 9.375 530.645 9.375ZM535.384 8.7642L538.012 4.54545H538.978V10H538.14V5.78125L535.526 10H534.546V4.54545H535.384V8.7642ZM537.458 2.72727H538.24C538.24 3.1108 538.107 3.42448 537.842 3.66832C537.577 3.91217 537.217 4.03409 536.762 4.03409C536.315 4.03409 535.959 3.91217 535.693 3.66832C535.431 3.42448 535.299 3.1108 535.299 2.72727H536.08C536.08 2.91193 536.131 3.0741 536.233 3.21378C536.337 3.35346 536.514 3.4233 536.762 3.4233C537.011 3.4233 537.188 3.35346 537.295 3.21378C537.404 3.0741 537.458 2.91193 537.458 2.72727ZM540.513 10V4.54545H541.351V6.91761H541.905L543.865 4.54545H544.945L542.743 7.1733L544.973 10H543.894L542.104 7.69886H541.351V10H540.513ZM547.489 10.1278C547.144 10.1278 546.83 10.0627 546.548 9.93253C546.267 9.79995 546.043 9.60938 545.877 9.3608C545.711 9.10985 545.629 8.80682 545.629 8.4517C545.629 8.1392 545.69 7.88589 545.813 7.69176C545.936 7.49527 546.101 7.34138 546.307 7.23011C546.513 7.11884 546.74 7.03598 546.989 6.98153C547.24 6.92472 547.492 6.87973 547.745 6.84659C548.076 6.80398 548.345 6.77202 548.551 6.75071C548.759 6.72704 548.911 6.68797 549.006 6.63352C549.103 6.57907 549.151 6.48437 549.151 6.34943V6.32102C549.151 5.97064 549.055 5.69839 548.864 5.50426C548.674 5.31013 548.387 5.21307 548.001 5.21307C547.601 5.21307 547.287 5.30066 547.06 5.47585C546.832 5.65104 546.673 5.83807 546.58 6.03693L545.785 5.75284C545.927 5.4214 546.116 5.16335 546.353 4.97869C546.592 4.79167 546.853 4.66146 547.134 4.58807C547.418 4.51231 547.698 4.47443 547.972 4.47443C548.147 4.47443 548.349 4.49574 548.576 4.53835C548.806 4.5786 549.027 4.66264 549.24 4.79048C549.455 4.91832 549.634 5.11127 549.776 5.36932C549.918 5.62737 549.989 5.97301 549.989 6.40625V10H549.151V9.26136H549.109C549.052 9.37973 548.957 9.50639 548.825 9.64134C548.692 9.77628 548.516 9.8911 548.295 9.9858C548.075 10.0805 547.807 10.1278 547.489 10.1278ZM547.617 9.375C547.949 9.375 548.228 9.3099 548.455 9.17969C548.685 9.04948 548.858 8.88139 548.974 8.67543C549.092 8.46946 549.151 8.25284 549.151 8.02557V7.25852C549.116 7.30114 549.038 7.3402 548.917 7.37571C548.799 7.40885 548.661 7.43845 548.505 7.46449C548.351 7.48816 548.201 7.50947 548.054 7.52841C547.91 7.54498 547.792 7.55919 547.702 7.57102C547.485 7.59943 547.281 7.6456 547.092 7.70952C546.905 7.77107 546.753 7.86458 546.637 7.99006C546.523 8.11316 546.467 8.28125 546.467 8.49432C546.467 8.78551 546.574 9.00568 546.79 9.15483C547.008 9.30161 547.283 9.375 547.617 9.375ZM551.036 10V9.21875H551.235C551.398 9.21875 551.534 9.18679 551.643 9.12287C551.752 9.05658 551.84 8.94176 551.906 8.77841C551.975 8.61269 552.027 8.38305 552.062 8.08949C552.1 7.79356 552.127 7.41714 552.144 6.96023L552.243 4.54545H555.88V10H555.042V5.3267H553.039L552.954 7.27273C552.935 7.72017 552.894 8.11435 552.833 8.45526C552.774 8.7938 552.683 9.07789 552.559 9.30753C552.439 9.53717 552.278 9.70999 552.077 9.82599C551.875 9.942 551.623 10 551.32 10H551.036ZM559.633 10.1136C559.122 10.1136 558.682 9.9929 558.312 9.75142C557.943 9.50994 557.659 9.17732 557.46 8.75355C557.261 8.32978 557.162 7.84564 557.162 7.30114C557.162 6.74716 557.264 6.25829 557.467 5.83452C557.673 5.40838 557.96 5.07576 558.327 4.83665C558.696 4.59517 559.127 4.47443 559.619 4.47443C560.003 4.47443 560.348 4.54545 560.656 4.6875C560.964 4.82955 561.216 5.02841 561.412 5.28409C561.609 5.53977 561.731 5.83807 561.778 6.17898H560.94C560.876 5.9304 560.734 5.71023 560.514 5.51847C560.296 5.32434 560.003 5.22727 559.633 5.22727C559.307 5.22727 559.02 5.3125 558.774 5.48295C558.53 5.65104 558.34 5.88897 558.202 6.19673C558.067 6.50213 558 6.8608 558 7.27273C558 7.69413 558.066 8.06108 558.199 8.37358C558.334 8.68608 558.523 8.92874 558.767 9.10156C559.013 9.27438 559.302 9.3608 559.633 9.3608C559.851 9.3608 560.049 9.32292 560.226 9.24716C560.404 9.1714 560.554 9.0625 560.677 8.92045C560.8 8.77841 560.888 8.60795 560.94 8.40909H561.778C561.731 8.73106 561.614 9.02107 561.427 9.27912C561.242 9.5348 560.997 9.7384 560.692 9.88991C560.389 10.0391 560.036 10.1136 559.633 10.1136ZM563.841 8.7642L566.469 4.54545H567.435V10H566.597V5.78125L563.983 10H563.003V4.54545H563.841V8.7642ZM571.783 10V4.54545H572.621V6.91761H573.175L575.135 4.54545H576.214L574.013 7.1733L576.243 10H575.163L573.374 7.69886H572.621V10H571.783ZM579.145 10.1136C578.653 10.1136 578.221 9.99645 577.849 9.76207C577.48 9.5277 577.191 9.19981 576.982 8.77841C576.776 8.35701 576.673 7.86458 576.673 7.30114C576.673 6.73295 576.776 6.23698 576.982 5.81321C577.191 5.38944 577.48 5.06037 577.849 4.82599C578.221 4.59162 578.653 4.47443 579.145 4.47443C579.637 4.47443 580.068 4.59162 580.438 4.82599C580.809 5.06037 581.098 5.38944 581.304 5.81321C581.512 6.23698 581.617 6.73295 581.617 7.30114C581.617 7.86458 581.512 8.35701 581.304 8.77841C581.098 9.19981 580.809 9.5277 580.438 9.76207C580.068 9.99645 579.637 10.1136 579.145 10.1136ZM579.145 9.3608C579.519 9.3608 579.827 9.26491 580.068 9.07315C580.31 8.88139 580.489 8.62926 580.605 8.31676C580.721 8.00426 580.779 7.66572 580.779 7.30114C580.779 6.93655 580.721 6.59683 580.605 6.28196C580.489 5.96709 580.31 5.71259 580.068 5.51847C579.827 5.32434 579.519 5.22727 579.145 5.22727C578.771 5.22727 578.463 5.32434 578.222 5.51847C577.98 5.71259 577.802 5.96709 577.686 6.28196C577.57 6.59683 577.512 6.93655 577.512 7.30114C577.512 7.66572 577.57 8.00426 577.686 8.31676C577.802 8.62926 577.98 8.88139 578.222 9.07315C578.463 9.26491 578.771 9.3608 579.145 9.3608ZM585.879 8.86364L587.782 4.54545H588.578L586.22 10H585.538L583.223 4.54545H584.004L585.879 8.86364ZM583.734 4.54545V10H582.896V4.54545H583.734ZM588.024 10V4.54545H588.862V10H588.024ZM590.396 10V4.54545H594.686V10H593.848V5.3267H591.234V10H590.396ZM597.821 10.1278C597.476 10.1278 597.162 10.0627 596.88 9.93253C596.599 9.79995 596.375 9.60938 596.209 9.3608C596.043 9.10985 595.961 8.80682 595.961 8.4517C595.961 8.1392 596.022 7.88589 596.145 7.69176C596.268 7.49527 596.433 7.34138 596.639 7.23011C596.845 7.11884 597.072 7.03598 597.321 6.98153C597.572 6.92472 597.824 6.87973 598.077 6.84659C598.408 6.80398 598.677 6.77202 598.883 6.75071C599.092 6.72704 599.243 6.68797 599.338 6.63352C599.435 6.57907 599.483 6.48437 599.483 6.34943V6.32102C599.483 5.97064 599.387 5.69839 599.196 5.50426C599.006 5.31013 598.719 5.21307 598.333 5.21307C597.933 5.21307 597.619 5.30066 597.392 5.47585C597.164 5.65104 597.005 5.83807 596.912 6.03693L596.117 5.75284C596.259 5.4214 596.448 5.16335 596.685 4.97869C596.924 4.79167 597.185 4.66146 597.466 4.58807C597.75 4.51231 598.03 4.47443 598.304 4.47443C598.48 4.47443 598.681 4.49574 598.908 4.53835C599.138 4.5786 599.359 4.66264 599.572 4.79048C599.788 4.91832 599.966 5.11127 600.108 5.36932C600.25 5.62737 600.321 5.97301 600.321 6.40625V10H599.483V9.26136H599.441C599.384 9.37973 599.289 9.50639 599.157 9.64134C599.024 9.77628 598.848 9.8911 598.627 9.9858C598.407 10.0805 598.139 10.1278 597.821 10.1278ZM597.949 9.375C598.281 9.375 598.56 9.3099 598.787 9.17969C599.017 9.04948 599.19 8.88139 599.306 8.67543C599.424 8.46946 599.483 8.25284 599.483 8.02557V7.25852C599.448 7.30114 599.37 7.3402 599.249 7.37571C599.131 7.40885 598.993 7.43845 598.837 7.46449C598.683 7.48816 598.533 7.50947 598.386 7.52841C598.242 7.54498 598.124 7.55919 598.034 7.57102C597.817 7.59943 597.613 7.6456 597.424 7.70952C597.237 7.77107 597.085 7.86458 596.969 7.99006C596.855 8.11316 596.799 8.28125 596.799 8.49432C596.799 8.78551 596.906 9.00568 597.122 9.15483C597.34 9.30161 597.615 9.375 597.949 9.375ZM605.502 6.8892V7.67045H602.49V6.8892H605.502ZM602.689 4.54545V10H601.851V4.54545H602.689ZM606.141 4.54545V10H605.303V4.54545H606.141ZM608.509 8.7642L611.137 4.54545H612.103V10H611.265V5.78125L608.651 10H607.671V4.54545H608.509V8.7642Z"
    fill="#8E8E8E"/>
</svg>
