<svg width="252" height="20" viewBox="0 0 252 20" fill="none"
     xmlns="http://www.w3.org/2000/svg">
  <path
    d="M0.943182 8H0.204545L2.34091 2.18182H3.06818L5.20455 8H4.46591L2.72727 3.10227H2.68182L0.943182 8ZM1.21591 5.72727H4.19318V6.35227H1.21591V5.72727ZM9.53125 8L7.53125 5.32955H6.81534V8H6.1108V2.18182H6.81534V4.70455H7.12216L9.4517 2.18182H10.2926L7.94034 4.73864L10.3722 8H9.53125ZM16.2259 7.32955L16.1463 9.375H15.419V8H15.0099V7.32955H16.2259ZM11.2827 8V2.18182H11.9531V7.35227H14.9531V2.18182H15.6236V8H11.2827ZM17.2905 2.18182H17.9837V6.76136H18.0405L21.2223 2.18182H21.9041V8H21.1996V3.43182H21.1428L17.9723 8H17.2905V2.18182ZM28.223 5.09091C28.223 5.70455 28.1122 6.23485 27.8906 6.68182C27.669 7.12879 27.3651 7.47348 26.9787 7.71591C26.5923 7.95833 26.151 8.07955 25.6548 8.07955C25.1586 8.07955 24.7173 7.95833 24.331 7.71591C23.9446 7.47348 23.6406 7.12879 23.419 6.68182C23.1974 6.23485 23.0866 5.70455 23.0866 5.09091C23.0866 4.47727 23.1974 3.94697 23.419 3.5C23.6406 3.05303 23.9446 2.70833 24.331 2.46591C24.7173 2.22348 25.1586 2.10227 25.6548 2.10227C26.151 2.10227 26.5923 2.22348 26.9787 2.46591C27.3651 2.70833 27.669 3.05303 27.8906 3.5C28.1122 3.94697 28.223 4.47727 28.223 5.09091ZM27.5412 5.09091C27.5412 4.58712 27.4569 4.16193 27.2884 3.81534C27.1217 3.46875 26.8954 3.20644 26.6094 3.02841C26.3253 2.85038 26.0071 2.76136 25.6548 2.76136C25.3026 2.76136 24.9834 2.85038 24.6974 3.02841C24.4134 3.20644 24.187 3.46875 24.0185 3.81534C23.8518 4.16193 23.7685 4.58712 23.7685 5.09091C23.7685 5.5947 23.8518 6.01989 24.0185 6.36648C24.187 6.71307 24.4134 6.97538 24.6974 7.15341C24.9834 7.33144 25.3026 7.42045 25.6548 7.42045C26.0071 7.42045 26.3253 7.33144 26.6094 7.15341C26.8954 6.97538 27.1217 6.71307 27.2884 6.36648C27.4569 6.01989 27.5412 5.5947 27.5412 5.09091ZM29.4077 8V2.18182H30.1122V4.77273H33.2145V2.18182H33.919V8H33.2145V5.39773H30.1122V8H29.4077ZM35.3295 8V2.18182H38.8409V2.80682H36.0341V4.77273H38.6591V5.39773H36.0341V7.375H38.8864V8H35.3295ZM40.1108 8V2.18182H42.0767C42.5331 2.18182 42.9063 2.2642 43.196 2.42898C43.4877 2.59186 43.7036 2.8125 43.8438 3.09091C43.9839 3.36932 44.054 3.67992 44.054 4.02273C44.054 4.36553 43.9839 4.67708 43.8438 4.95739C43.7055 5.23769 43.4915 5.46117 43.2017 5.62784C42.9119 5.79261 42.5407 5.875 42.0881 5.875H40.679V5.25H42.0653C42.3778 5.25 42.6288 5.19602 42.8182 5.08807C43.0076 4.98011 43.1449 4.83428 43.2301 4.65057C43.3172 4.46496 43.3608 4.25568 43.3608 4.02273C43.3608 3.78977 43.3172 3.58144 43.2301 3.39773C43.1449 3.21402 43.0066 3.07008 42.8153 2.96591C42.6241 2.85985 42.3703 2.80682 42.054 2.80682H40.8153V8H40.1108ZM45.1889 8V2.18182H45.8935V4.77273H48.9957V2.18182H49.7003V8H48.9957V5.39773H45.8935V8H45.1889ZM56.0199 5.09091C56.0199 5.70455 55.9091 6.23485 55.6875 6.68182C55.4659 7.12879 55.1619 7.47348 54.7756 7.71591C54.3892 7.95833 53.9479 8.07955 53.4517 8.07955C52.9555 8.07955 52.5142 7.95833 52.1278 7.71591C51.7415 7.47348 51.4375 7.12879 51.2159 6.68182C50.9943 6.23485 50.8835 5.70455 50.8835 5.09091C50.8835 4.47727 50.9943 3.94697 51.2159 3.5C51.4375 3.05303 51.7415 2.70833 52.1278 2.46591C52.5142 2.22348 52.9555 2.10227 53.4517 2.10227C53.9479 2.10227 54.3892 2.22348 54.7756 2.46591C55.1619 2.70833 55.4659 3.05303 55.6875 3.5C55.9091 3.94697 56.0199 4.47727 56.0199 5.09091ZM55.3381 5.09091C55.3381 4.58712 55.2538 4.16193 55.0852 3.81534C54.9186 3.46875 54.6922 3.20644 54.4062 3.02841C54.1222 2.85038 53.804 2.76136 53.4517 2.76136C53.0994 2.76136 52.7803 2.85038 52.4943 3.02841C52.2102 3.20644 51.9839 3.46875 51.8153 3.81534C51.6487 4.16193 51.5653 4.58712 51.5653 5.09091C51.5653 5.5947 51.6487 6.01989 51.8153 6.36648C51.9839 6.71307 52.2102 6.97538 52.4943 7.15341C52.7803 7.33144 53.0994 7.42045 53.4517 7.42045C53.804 7.42045 54.1222 7.33144 54.4062 7.15341C54.6922 6.97538 54.9186 6.71307 55.0852 6.36648C55.2538 6.01989 55.3381 5.5947 55.3381 5.09091ZM57.2045 8V2.18182H60.7159V2.80682H57.9091V4.77273H60.5341V5.39773H57.9091V7.375H60.7614V8H57.2045ZM69.1449 5.09091C69.1449 5.70455 69.0341 6.23485 68.8125 6.68182C68.5909 7.12879 68.2869 7.47348 67.9006 7.71591C67.5142 7.95833 67.0729 8.07955 66.5767 8.07955C66.0805 8.07955 65.6392 7.95833 65.2528 7.71591C64.8665 7.47348 64.5625 7.12879 64.3409 6.68182C64.1193 6.23485 64.0085 5.70455 64.0085 5.09091C64.0085 4.47727 64.1193 3.94697 64.3409 3.5C64.5625 3.05303 64.8665 2.70833 65.2528 2.46591C65.6392 2.22348 66.0805 2.10227 66.5767 2.10227C67.0729 2.10227 67.5142 2.22348 67.9006 2.46591C68.2869 2.70833 68.5909 3.05303 68.8125 3.5C69.0341 3.94697 69.1449 4.47727 69.1449 5.09091ZM68.4631 5.09091C68.4631 4.58712 68.3788 4.16193 68.2102 3.81534C68.0436 3.46875 67.8172 3.20644 67.5312 3.02841C67.2472 2.85038 66.929 2.76136 66.5767 2.76136C66.2244 2.76136 65.9053 2.85038 65.6193 3.02841C65.3352 3.20644 65.1089 3.46875 64.9403 3.81534C64.7737 4.16193 64.6903 4.58712 64.6903 5.09091C64.6903 5.5947 64.7737 6.01989 64.9403 6.36648C65.1089 6.71307 65.3352 6.97538 65.6193 7.15341C65.9053 7.33144 66.2244 7.42045 66.5767 7.42045C66.929 7.42045 67.2472 7.33144 67.5312 7.15341C67.8172 6.97538 68.0436 6.71307 68.2102 6.36648C68.3788 6.01989 68.4631 5.5947 68.4631 5.09091ZM70.3295 8V2.18182H73.8409V2.80682H71.0341V4.625H72.5114C72.928 4.625 73.2794 4.69318 73.5653 4.82955C73.8532 4.96591 74.071 5.15814 74.2188 5.40625C74.3684 5.65436 74.4432 5.94697 74.4432 6.28409C74.4432 6.62121 74.3684 6.91856 74.2188 7.17614C74.071 7.43371 73.8532 7.63542 73.5653 7.78125C73.2794 7.92708 72.928 8 72.5114 8H70.3295ZM71.0341 7.38636H72.5114C72.7765 7.38636 73.0009 7.33333 73.1847 7.22727C73.3703 7.11932 73.5104 6.98106 73.6051 6.8125C73.7017 6.64205 73.75 6.46212 73.75 6.27273C73.75 5.99432 73.643 5.75473 73.429 5.55398C73.215 5.35133 72.9091 5.25 72.5114 5.25H71.0341V7.38636ZM82.3757 7.375L82.2962 9.375H81.603V8H81.0462V7.375H82.3757ZM75.603 2.18182H76.3075V7.35227H78.353V2.18182H79.0575V7.35227H81.103V2.18182H81.8075V8H75.603V2.18182ZM83.4467 8V2.18182H86.9581V2.80682H84.1513V4.77273H86.7763V5.39773H84.1513V7.375H87.0036V8H83.4467ZM92.9098 4H92.2053C92.1636 3.79735 92.0907 3.61932 91.9865 3.46591C91.8842 3.3125 91.7592 3.18371 91.6115 3.07955C91.4657 2.97348 91.3037 2.89394 91.1257 2.84091C90.9477 2.78788 90.7621 2.76136 90.5689 2.76136C90.2166 2.76136 89.8975 2.85038 89.6115 3.02841C89.3274 3.20644 89.1011 3.46875 88.9325 3.81534C88.7659 4.16193 88.6825 4.58712 88.6825 5.09091C88.6825 5.5947 88.7659 6.01989 88.9325 6.36648C89.1011 6.71307 89.3274 6.97538 89.6115 7.15341C89.8975 7.33144 90.2166 7.42045 90.5689 7.42045C90.7621 7.42045 90.9477 7.39394 91.1257 7.34091C91.3037 7.28788 91.4657 7.20928 91.6115 7.10511C91.7592 6.99905 91.8842 6.86932 91.9865 6.71591C92.0907 6.56061 92.1636 6.38258 92.2053 6.18182H92.9098C92.8568 6.47917 92.7602 6.74527 92.62 6.98011C92.4799 7.21496 92.3056 7.41477 92.0973 7.57955C91.889 7.74242 91.6551 7.86648 91.3956 7.9517C91.138 8.03693 90.8625 8.07955 90.5689 8.07955C90.0727 8.07955 89.6314 7.95833 89.245 7.71591C88.8587 7.47348 88.5547 7.12879 88.3331 6.68182C88.1115 6.23485 88.0007 5.70455 88.0007 5.09091C88.0007 4.47727 88.1115 3.94697 88.3331 3.5C88.5547 3.05303 88.8587 2.70833 89.245 2.46591C89.6314 2.22348 90.0727 2.10227 90.5689 2.10227C90.8625 2.10227 91.138 2.14489 91.3956 2.23011C91.6551 2.31534 91.889 2.44034 92.0973 2.60511C92.3056 2.76799 92.4799 2.96686 92.62 3.2017C92.7602 3.43466 92.8568 3.70076 92.9098 4ZM93.7301 2.80682V2.18182H98.0938V2.80682H96.2642V8H95.5597V2.80682H93.7301ZM99.1811 8V2.18182H101.215C101.621 2.18182 101.955 2.25189 102.218 2.39205C102.481 2.5303 102.677 2.71686 102.806 2.9517C102.935 3.18466 102.999 3.44318 102.999 3.72727C102.999 3.97727 102.955 4.18371 102.866 4.34659C102.779 4.50947 102.663 4.63826 102.519 4.73295C102.377 4.82765 102.223 4.89773 102.056 4.94318V5C102.234 5.01136 102.413 5.07386 102.593 5.1875C102.773 5.30114 102.924 5.46402 103.045 5.67614C103.166 5.88826 103.227 6.14773 103.227 6.45455C103.227 6.74621 103.16 7.00852 103.028 7.24148C102.895 7.47443 102.686 7.65909 102.4 7.79545C102.114 7.93182 101.742 8 101.283 8H99.1811ZM99.8857 7.375H101.283C101.744 7.375 102.07 7.28598 102.263 7.10795C102.459 6.92803 102.556 6.71023 102.556 6.45455C102.556 6.25758 102.506 6.07576 102.406 5.90909C102.305 5.74053 102.162 5.60606 101.977 5.50568C101.791 5.40341 101.571 5.35227 101.317 5.35227H99.8857V7.375ZM99.8857 4.73864H101.192C101.405 4.73864 101.596 4.69697 101.766 4.61364C101.939 4.5303 102.075 4.41288 102.175 4.26136C102.278 4.10985 102.329 3.93182 102.329 3.72727C102.329 3.47159 102.24 3.25473 102.062 3.0767C101.884 2.89678 101.602 2.80682 101.215 2.80682H99.8857V4.73864ZM109.293 5.09091C109.293 5.70455 109.183 6.23485 108.961 6.68182C108.739 7.12879 108.435 7.47348 108.049 7.71591C107.663 7.95833 107.221 8.07955 106.725 8.07955C106.229 8.07955 105.788 7.95833 105.401 7.71591C105.015 7.47348 104.711 7.12879 104.489 6.68182C104.268 6.23485 104.157 5.70455 104.157 5.09091C104.157 4.47727 104.268 3.94697 104.489 3.5C104.711 3.05303 105.015 2.70833 105.401 2.46591C105.788 2.22348 106.229 2.10227 106.725 2.10227C107.221 2.10227 107.663 2.22348 108.049 2.46591C108.435 2.70833 108.739 3.05303 108.961 3.5C109.183 3.94697 109.293 4.47727 109.293 5.09091ZM108.612 5.09091C108.612 4.58712 108.527 4.16193 108.359 3.81534C108.192 3.46875 107.966 3.20644 107.68 3.02841C107.396 2.85038 107.077 2.76136 106.725 2.76136C106.373 2.76136 106.054 2.85038 105.768 3.02841C105.484 3.20644 105.257 3.46875 105.089 3.81534C104.922 4.16193 104.839 4.58712 104.839 5.09091C104.839 5.5947 104.922 6.01989 105.089 6.36648C105.257 6.71307 105.484 6.97538 105.768 7.15341C106.054 7.33144 106.373 7.42045 106.725 7.42045C107.077 7.42045 107.396 7.33144 107.68 7.15341C107.966 6.97538 108.192 6.71307 108.359 6.36648C108.527 6.01989 108.612 5.5947 108.612 5.09091ZM113.217 2.18182V4.18182H112.592V2.18182H113.217ZM114.671 2.18182V4.18182H114.046V2.18182H114.671ZM115.955 2.18182H116.648V6.76136H116.705L119.886 2.18182H120.568V8H119.864V3.43182H119.807L116.636 8H115.955V2.18182ZM121.978 8V2.18182H123.944C124.4 2.18182 124.773 2.2642 125.063 2.42898C125.355 2.59186 125.571 2.8125 125.711 3.09091C125.851 3.36932 125.921 3.67992 125.921 4.02273C125.921 4.36553 125.851 4.67708 125.711 4.95739C125.573 5.23769 125.359 5.46117 125.069 5.62784C124.779 5.79261 124.408 5.875 123.955 5.875H122.546V5.25H123.933C124.245 5.25 124.496 5.19602 124.685 5.08807C124.875 4.98011 125.012 4.83428 125.097 4.65057C125.184 4.46496 125.228 4.25568 125.228 4.02273C125.228 3.78977 125.184 3.58144 125.097 3.39773C125.012 3.21402 124.874 3.07008 124.683 2.96591C124.491 2.85985 124.237 2.80682 123.921 2.80682H122.683V8H121.978ZM130.477 8L128.477 5.32955H127.761V8H127.056V2.18182H127.761V4.70455H128.067L130.397 2.18182H131.238L128.886 4.73864L131.317 8H130.477ZM132.535 8.07955V7.42045H132.898C133.039 7.42045 133.156 7.39299 133.251 7.33807C133.347 7.28314 133.427 7.21212 133.489 7.125C133.554 7.03788 133.607 6.94697 133.648 6.85227L133.739 6.63636L131.728 2.18182H132.489L134.092 5.79545L135.558 2.18182H136.308L134.296 7.05682C134.217 7.23864 134.126 7.4072 134.023 7.5625C133.923 7.7178 133.786 7.8428 133.612 7.9375C133.439 8.0322 133.205 8.07955 132.91 8.07955H132.535ZM137.269 2.80682V2.18182H141.633V2.80682H139.803V8H139.099V2.80682H137.269ZM147.16 4H146.455C146.414 3.79735 146.341 3.61932 146.237 3.46591C146.134 3.3125 146.009 3.18371 145.862 3.07955C145.716 2.97348 145.554 2.89394 145.376 2.84091C145.198 2.78788 145.012 2.76136 144.819 2.76136C144.467 2.76136 144.147 2.85038 143.862 3.02841C143.577 3.20644 143.351 3.46875 143.183 3.81534C143.016 4.16193 142.933 4.58712 142.933 5.09091C142.933 5.5947 143.016 6.01989 143.183 6.36648C143.351 6.71307 143.577 6.97538 143.862 7.15341C144.147 7.33144 144.467 7.42045 144.819 7.42045C145.012 7.42045 145.198 7.39394 145.376 7.34091C145.554 7.28788 145.716 7.20928 145.862 7.10511C146.009 6.99905 146.134 6.86932 146.237 6.71591C146.341 6.56061 146.414 6.38258 146.455 6.18182H147.16C147.107 6.47917 147.01 6.74527 146.87 6.98011C146.73 7.21496 146.556 7.41477 146.347 7.57955C146.139 7.74242 145.905 7.86648 145.646 7.9517C145.388 8.03693 145.112 8.07955 144.819 8.07955C144.323 8.07955 143.881 7.95833 143.495 7.71591C143.109 7.47348 142.805 7.12879 142.583 6.68182C142.362 6.23485 142.251 5.70455 142.251 5.09091C142.251 4.47727 142.362 3.94697 142.583 3.5C142.805 3.05303 143.109 2.70833 143.495 2.46591C143.881 2.22348 144.323 2.10227 144.819 2.10227C145.112 2.10227 145.388 2.14489 145.646 2.23011C145.905 2.31534 146.139 2.44034 146.347 2.60511C146.556 2.76799 146.73 2.96686 146.87 3.2017C147.01 3.43466 147.107 3.70076 147.16 4ZM151.719 8L149.719 5.32955H149.003V8H148.298V2.18182H149.003V4.70455H149.31L151.639 2.18182H152.48L150.128 4.73864L152.56 8H151.719ZM153.47 2.18182H154.163V6.76136H154.22L157.402 2.18182H158.084V8H157.379V3.43182H157.322L154.152 8H153.47V2.18182ZM159.494 2.18182H160.187V6.76136H160.244L163.425 2.18182H164.107V8H163.403V3.43182H163.346L160.175 8H159.494V2.18182ZM162.357 0.727273H162.982C162.982 1.03409 162.876 1.28504 162.664 1.48011C162.452 1.67519 162.164 1.77273 161.8 1.77273C161.442 1.77273 161.157 1.67519 160.945 1.48011C160.735 1.28504 160.63 1.03409 160.63 0.727273H161.255C161.255 0.875 161.296 1.00473 161.377 1.11648C161.46 1.22822 161.602 1.28409 161.8 1.28409C161.999 1.28409 162.141 1.22822 162.227 1.11648C162.314 1.00473 162.357 0.875 162.357 0.727273ZM169.631 8.07955C169.256 8.07955 168.921 8.01515 168.628 7.88636C168.336 7.75758 168.104 7.5786 167.932 7.34943C167.761 7.11837 167.669 6.85038 167.653 6.54545H168.369C168.384 6.73295 168.449 6.89489 168.562 7.03125C168.676 7.16572 168.825 7.26989 169.009 7.34375C169.192 7.41761 169.396 7.45455 169.619 7.45455C169.869 7.45455 170.091 7.41098 170.284 7.32386C170.477 7.23674 170.629 7.11553 170.739 6.96023C170.848 6.80492 170.903 6.625 170.903 6.42045C170.903 6.20644 170.85 6.01799 170.744 5.85511C170.638 5.69034 170.483 5.56155 170.278 5.46875C170.074 5.37595 169.824 5.32955 169.528 5.32955H169.062V4.70455H169.528C169.759 4.70455 169.962 4.66288 170.136 4.57955C170.313 4.49621 170.45 4.37879 170.548 4.22727C170.649 4.07576 170.699 3.89773 170.699 3.69318C170.699 3.49621 170.655 3.32481 170.568 3.17898C170.481 3.03314 170.358 2.91951 170.199 2.83807C170.042 2.75663 169.856 2.71591 169.642 2.71591C169.441 2.71591 169.252 2.75284 169.074 2.8267C168.898 2.89867 168.754 3.00379 168.642 3.14205C168.53 3.27841 168.47 3.44318 168.46 3.63636H167.778C167.79 3.33144 167.882 3.06439 168.054 2.83523C168.226 2.60417 168.452 2.42424 168.73 2.29545C169.01 2.16667 169.318 2.10227 169.653 2.10227C170.013 2.10227 170.322 2.17519 170.58 2.32102C170.837 2.46496 171.035 2.6553 171.173 2.89205C171.312 3.12879 171.381 3.38447 171.381 3.65909C171.381 3.98674 171.295 4.2661 171.122 4.49716C170.952 4.72822 170.72 4.88826 170.426 4.97727V5.02273C170.794 5.08333 171.08 5.23958 171.287 5.49148C171.493 5.74148 171.597 6.05114 171.597 6.42045C171.597 6.73674 171.51 7.02083 171.338 7.27273C171.168 7.52273 170.935 7.7197 170.639 7.86364C170.344 8.00758 170.008 8.07955 169.631 8.07955ZM173.099 8H172.361L174.497 2.18182H175.224L177.361 8H176.622L174.884 3.10227H174.838L173.099 8ZM173.372 5.72727H176.349V6.35227H173.372V5.72727ZM178.267 8V2.18182H180.301C180.706 2.18182 181.041 2.25189 181.304 2.39205C181.567 2.5303 181.763 2.71686 181.892 2.9517C182.021 3.18466 182.085 3.44318 182.085 3.72727C182.085 3.97727 182.041 4.18371 181.952 4.34659C181.865 4.50947 181.749 4.63826 181.605 4.73295C181.463 4.82765 181.309 4.89773 181.142 4.94318V5C181.32 5.01136 181.499 5.07386 181.679 5.1875C181.859 5.30114 182.009 5.46402 182.131 5.67614C182.252 5.88826 182.312 6.14773 182.312 6.45455C182.312 6.74621 182.246 7.00852 182.114 7.24148C181.981 7.47443 181.772 7.65909 181.486 7.79545C181.2 7.93182 180.828 8 180.369 8H178.267ZM178.972 7.375H180.369C180.83 7.375 181.156 7.28598 181.349 7.10795C181.545 6.92803 181.642 6.71023 181.642 6.45455C181.642 6.25758 181.592 6.07576 181.491 5.90909C181.391 5.74053 181.248 5.60606 181.062 5.50568C180.877 5.40341 180.657 5.35227 180.403 5.35227H178.972V7.375ZM178.972 4.73864H180.278C180.491 4.73864 180.682 4.69697 180.852 4.61364C181.025 4.5303 181.161 4.41288 181.261 4.26136C181.364 4.10985 181.415 3.93182 181.415 3.72727C181.415 3.47159 181.326 3.25473 181.148 3.0767C180.97 2.89678 180.688 2.80682 180.301 2.80682H178.972V4.73864ZM188.379 5.09091C188.379 5.70455 188.268 6.23485 188.047 6.68182C187.825 7.12879 187.521 7.47348 187.135 7.71591C186.749 7.95833 186.307 8.07955 185.811 8.07955C185.315 8.07955 184.874 7.95833 184.487 7.71591C184.101 7.47348 183.797 7.12879 183.575 6.68182C183.354 6.23485 183.243 5.70455 183.243 5.09091C183.243 4.47727 183.354 3.94697 183.575 3.5C183.797 3.05303 184.101 2.70833 184.487 2.46591C184.874 2.22348 185.315 2.10227 185.811 2.10227C186.307 2.10227 186.749 2.22348 187.135 2.46591C187.521 2.70833 187.825 3.05303 188.047 3.5C188.268 3.94697 188.379 4.47727 188.379 5.09091ZM187.697 5.09091C187.697 4.58712 187.613 4.16193 187.445 3.81534C187.278 3.46875 187.052 3.20644 186.766 3.02841C186.482 2.85038 186.163 2.76136 185.811 2.76136C185.459 2.76136 185.14 2.85038 184.854 3.02841C184.57 3.20644 184.343 3.46875 184.175 3.81534C184.008 4.16193 183.925 4.58712 183.925 5.09091C183.925 5.5947 184.008 6.01989 184.175 6.36648C184.343 6.71307 184.57 6.97538 184.854 7.15341C185.14 7.33144 185.459 7.42045 185.811 7.42045C186.163 7.42045 186.482 7.33144 186.766 7.15341C187.052 6.97538 187.278 6.71307 187.445 6.36648C187.613 6.01989 187.697 5.5947 187.697 5.09091ZM189.064 9.40909V7.375H189.439C189.568 7.25758 189.689 7.09186 189.803 6.87784C189.918 6.66193 190.016 6.37405 190.095 6.0142C190.177 5.65246 190.231 5.19318 190.257 4.63636L190.382 2.18182H193.837V7.375H194.507V9.39773H193.837V8H189.734V9.40909H189.064ZM190.28 7.375H193.166V2.80682H191.018L190.928 4.63636C190.905 5.06061 190.865 5.44508 190.808 5.78977C190.751 6.13258 190.679 6.43655 190.589 6.7017C190.5 6.96496 190.397 7.18939 190.28 7.375ZM197.822 8V2.18182H199.788C200.244 2.18182 200.617 2.2642 200.907 2.42898C201.199 2.59186 201.415 2.8125 201.555 3.09091C201.695 3.36932 201.765 3.67992 201.765 4.02273C201.765 4.36553 201.695 4.67708 201.555 4.95739C201.416 5.23769 201.202 5.46117 200.913 5.62784C200.623 5.79261 200.252 5.875 199.799 5.875H198.39V5.25H199.776C200.089 5.25 200.34 5.19602 200.529 5.08807C200.719 4.98011 200.856 4.83428 200.941 4.65057C201.028 4.46496 201.072 4.25568 201.072 4.02273C201.072 3.78977 201.028 3.58144 200.941 3.39773C200.856 3.21402 200.718 3.07008 200.526 2.96591C200.335 2.85985 200.081 2.80682 199.765 2.80682H198.526V8H197.822ZM207.809 5.09091C207.809 5.70455 207.698 6.23485 207.477 6.68182C207.255 7.12879 206.951 7.47348 206.565 7.71591C206.178 7.95833 205.737 8.07955 205.241 8.07955C204.745 8.07955 204.303 7.95833 203.917 7.71591C203.531 7.47348 203.227 7.12879 203.005 6.68182C202.783 6.23485 202.673 5.70455 202.673 5.09091C202.673 4.47727 202.783 3.94697 203.005 3.5C203.227 3.05303 203.531 2.70833 203.917 2.46591C204.303 2.22348 204.745 2.10227 205.241 2.10227C205.737 2.10227 206.178 2.22348 206.565 2.46591C206.951 2.70833 207.255 3.05303 207.477 3.5C207.698 3.94697 207.809 4.47727 207.809 5.09091ZM207.127 5.09091C207.127 4.58712 207.043 4.16193 206.874 3.81534C206.708 3.46875 206.481 3.20644 206.195 3.02841C205.911 2.85038 205.593 2.76136 205.241 2.76136C204.888 2.76136 204.569 2.85038 204.283 3.02841C203.999 3.20644 203.773 3.46875 203.604 3.81534C203.438 4.16193 203.354 4.58712 203.354 5.09091C203.354 5.5947 203.438 6.01989 203.604 6.36648C203.773 6.71307 203.999 6.97538 204.283 7.15341C204.569 7.33144 204.888 7.42045 205.241 7.42045C205.593 7.42045 205.911 7.33144 206.195 7.15341C206.481 6.97538 206.708 6.71307 206.874 6.36648C207.043 6.01989 207.127 5.5947 207.127 5.09091ZM210.857 8.07955C210.482 8.07955 210.148 8.01515 209.854 7.88636C209.563 7.75758 209.331 7.5786 209.158 7.34943C208.988 7.11837 208.895 6.85038 208.88 6.54545H209.596C209.611 6.73295 209.675 6.89489 209.789 7.03125C209.903 7.16572 210.051 7.26989 210.235 7.34375C210.419 7.41761 210.622 7.45455 210.846 7.45455C211.096 7.45455 211.317 7.41098 211.511 7.32386C211.704 7.23674 211.855 7.11553 211.965 6.96023C212.075 6.80492 212.13 6.625 212.13 6.42045C212.13 6.20644 212.077 6.01799 211.971 5.85511C211.865 5.69034 211.71 5.56155 211.505 5.46875C211.3 5.37595 211.05 5.32955 210.755 5.32955H210.289V4.70455H210.755C210.986 4.70455 211.189 4.66288 211.363 4.57955C211.539 4.49621 211.676 4.37879 211.775 4.22727C211.875 4.07576 211.925 3.89773 211.925 3.69318C211.925 3.49621 211.882 3.32481 211.795 3.17898C211.708 3.03314 211.585 2.91951 211.425 2.83807C211.268 2.75663 211.083 2.71591 210.869 2.71591C210.668 2.71591 210.478 2.75284 210.3 2.8267C210.124 2.89867 209.98 3.00379 209.869 3.14205C209.757 3.27841 209.696 3.44318 209.687 3.63636H209.005C209.016 3.33144 209.108 3.06439 209.281 2.83523C209.453 2.60417 209.678 2.42424 209.957 2.29545C210.237 2.16667 210.545 2.10227 210.88 2.10227C211.24 2.10227 211.549 2.17519 211.806 2.32102C212.064 2.46496 212.262 2.6553 212.4 2.89205C212.538 3.12879 212.607 3.38447 212.607 3.65909C212.607 3.98674 212.521 4.2661 212.349 4.49716C212.178 4.72822 211.946 4.88826 211.653 4.97727V5.02273C212.02 5.08333 212.307 5.23958 212.513 5.49148C212.72 5.74148 212.823 6.05114 212.823 6.42045C212.823 6.73674 212.737 7.02083 212.565 7.27273C212.394 7.52273 212.161 7.7197 211.866 7.86364C211.57 8.00758 211.234 8.07955 210.857 8.07955ZM213.587 8V7.35227H213.758C214 7.35227 214.189 7.27462 214.323 7.11932C214.458 6.96402 214.554 6.71307 214.613 6.36648C214.674 6.01989 214.714 5.56061 214.735 4.98864L214.837 2.18182H218.383V8H217.678V2.80682H215.508L215.417 5.125C215.394 5.73485 215.338 6.25379 215.249 6.68182C215.16 7.10985 215.004 7.43655 214.781 7.66193C214.557 7.88731 214.231 8 213.803 8H213.587ZM219.79 2.18182H220.484V6.76136H220.54L223.722 2.18182H224.404V8H223.7V3.43182H223.643L220.472 8H219.79V2.18182ZM225.814 8V2.18182H227.848C228.253 2.18182 228.588 2.25189 228.851 2.39205C229.114 2.5303 229.31 2.71686 229.439 2.9517C229.568 3.18466 229.632 3.44318 229.632 3.72727C229.632 3.97727 229.588 4.18371 229.499 4.34659C229.411 4.50947 229.296 4.63826 229.152 4.73295C229.01 4.82765 228.856 4.89773 228.689 4.94318V5C228.867 5.01136 229.046 5.07386 229.226 5.1875C229.406 5.30114 229.556 5.46402 229.678 5.67614C229.799 5.88826 229.859 6.14773 229.859 6.45455C229.859 6.74621 229.793 7.00852 229.661 7.24148C229.528 7.47443 229.319 7.65909 229.033 7.79545C228.747 7.93182 228.375 8 227.916 8H225.814ZM226.518 7.375H227.916C228.376 7.375 228.703 7.28598 228.896 7.10795C229.091 6.92803 229.189 6.71023 229.189 6.45455C229.189 6.25758 229.139 6.07576 229.038 5.90909C228.938 5.74053 228.795 5.60606 228.609 5.50568C228.424 5.40341 228.204 5.35227 227.95 5.35227H226.518V7.375ZM226.518 4.73864H227.825C228.037 4.73864 228.229 4.69697 228.399 4.61364C228.571 4.5303 228.708 4.41288 228.808 4.26136C228.911 4.10985 228.962 3.93182 228.962 3.72727C228.962 3.47159 228.873 3.25473 228.695 3.0767C228.517 2.89678 228.234 2.80682 227.848 2.80682H226.518V4.73864ZM231.256 8H230.517L232.653 2.18182H233.381L235.517 8H234.778L233.04 3.10227H232.994L231.256 8ZM231.528 5.72727H234.506V6.35227H231.528V5.72727ZM0.704545 12.1818H1.54545L3.52273 17.0114H3.59091L5.56818 12.1818H6.40909V18H5.75V13.5795H5.69318L3.875 18H3.23864L1.42045 13.5795H1.36364V18H0.704545V12.1818ZM7.82173 12.1818H8.51491V16.7614H8.57173L11.7536 12.1818H12.4354V18H11.7308V13.4318H11.674L8.50355 18H7.82173V12.1818ZM13.8452 18V12.1818H14.5497V14.7727H17.652V12.1818H18.3565V18H17.652V15.3977H14.5497V18H13.8452ZM19.767 18V12.1818H23.2784V12.8068H20.4716V14.7727H23.0966V15.3977H20.4716V17.375H23.3239V18H19.767ZM24.5483 18V12.1818H26.5142C26.9706 12.1818 27.3438 12.2642 27.6335 12.429C27.9252 12.5919 28.1411 12.8125 28.2812 13.0909C28.4214 13.3693 28.4915 13.6799 28.4915 14.0227C28.4915 14.3655 28.4214 14.6771 28.2812 14.9574C28.143 15.2377 27.929 15.4612 27.6392 15.6278C27.3494 15.7926 26.9782 15.875 26.5256 15.875H25.1165V15.25H26.5028C26.8153 15.25 27.0663 15.196 27.2557 15.0881C27.4451 14.9801 27.5824 14.8343 27.6676 14.6506C27.7547 14.465 27.7983 14.2557 27.7983 14.0227C27.7983 13.7898 27.7547 13.5814 27.6676 13.3977C27.5824 13.214 27.4441 13.0701 27.2528 12.9659C27.0616 12.8598 26.8078 12.8068 26.4915 12.8068H25.2528V18H24.5483ZM29.2713 18H28.5327L30.669 12.1818H31.3963L33.5327 18H32.794L31.0554 13.1023H31.0099L29.2713 18ZM29.544 15.7273H32.5213V16.3523H29.544V15.7273ZM33.9389 18V17.3523H34.1094C34.3518 17.3523 34.5402 17.2746 34.6747 17.1193C34.8092 16.964 34.9058 16.7131 34.9645 16.3665C35.0251 16.0199 35.0658 15.5606 35.0866 14.9886L35.1889 12.1818H38.7344V18H38.0298V12.8068H35.8594L35.7685 15.125C35.7457 15.7348 35.6899 16.2538 35.6009 16.6818C35.5118 17.1098 35.3556 17.4366 35.1321 17.6619C34.9086 17.8873 34.5829 18 34.1548 18H33.9389ZM40.6648 14.625H42.3239C42.7405 14.625 43.0919 14.6932 43.3778 14.8295C43.6657 14.9659 43.8835 15.1581 44.0312 15.4062C44.1809 15.6544 44.2557 15.947 44.2557 16.2841C44.2557 16.6212 44.1809 16.9186 44.0312 17.1761C43.8835 17.4337 43.6657 17.6354 43.3778 17.7812C43.0919 17.9271 42.7405 18 42.3239 18H40.142V12.1818H40.8466V17.3864H42.3239C42.589 17.3864 42.8134 17.3333 42.9972 17.2273C43.1828 17.1193 43.3229 16.9811 43.4176 16.8125C43.5142 16.642 43.5625 16.4621 43.5625 16.2727C43.5625 15.9943 43.4555 15.7547 43.2415 15.554C43.0275 15.3513 42.7216 15.25 42.3239 15.25H40.6648V14.625ZM45.3686 18V12.1818H46.0732V14.7727H49.1754V12.1818H49.88V18H49.1754V15.3977H46.0732V18H45.3686ZM51.8132 14.625H53.4723C53.889 14.625 54.2403 14.6932 54.5263 14.8295C54.8142 14.9659 55.032 15.1581 55.1797 15.4062C55.3293 15.6544 55.4041 15.947 55.4041 16.2841C55.4041 16.6212 55.3293 16.9186 55.1797 17.1761C55.032 17.4337 54.8142 17.6354 54.5263 17.7812C54.2403 17.9271 53.889 18 53.4723 18H51.2905V12.1818H51.995V17.3864H53.4723C53.7375 17.3864 53.9619 17.3333 54.1456 17.2273C54.3312 17.1193 54.4714 16.9811 54.5661 16.8125C54.6626 16.642 54.7109 16.4621 54.7109 16.2727C54.7109 15.9943 54.6039 15.7547 54.3899 15.554C54.1759 15.3513 53.87 15.25 53.4723 15.25H51.8132V14.625ZM56.6768 12.1818V18H55.9723V12.1818H56.6768ZM58.4283 12.1818L59.9283 14.6023H59.9737L61.4737 12.1818H62.3033L60.4737 15.0909L62.3033 18H61.4737L59.9737 15.625H59.9283L58.4283 18H57.5987L59.4737 15.0909L57.5987 12.1818H58.4283ZM65.4702 18V12.1818H67.5043C67.9096 12.1818 68.2438 12.2519 68.5071 12.392C68.7704 12.5303 68.9664 12.7169 69.0952 12.9517C69.224 13.1847 69.2884 13.4432 69.2884 13.7273C69.2884 13.9773 69.2438 14.1837 69.1548 14.3466C69.0677 14.5095 68.9522 14.6383 68.8082 14.733C68.6662 14.8277 68.5118 14.8977 68.3452 14.9432V15C68.5232 15.0114 68.7022 15.0739 68.8821 15.1875C69.062 15.3011 69.2126 15.464 69.3338 15.6761C69.455 15.8883 69.5156 16.1477 69.5156 16.4545C69.5156 16.7462 69.4493 17.0085 69.3168 17.2415C69.1842 17.4744 68.9749 17.6591 68.6889 17.7955C68.4029 17.9318 68.0308 18 67.5724 18H65.4702ZM66.1747 17.375H67.5724C68.0327 17.375 68.3594 17.286 68.5526 17.108C68.7476 16.928 68.8452 16.7102 68.8452 16.4545C68.8452 16.2576 68.795 16.0758 68.6946 15.9091C68.5942 15.7405 68.4512 15.6061 68.2656 15.5057C68.08 15.4034 67.8603 15.3523 67.6065 15.3523H66.1747V17.375ZM66.1747 14.7386H67.4815C67.6937 14.7386 67.8849 14.697 68.0554 14.6136C68.2277 14.5303 68.3641 14.4129 68.4645 14.2614C68.5668 14.1098 68.6179 13.9318 68.6179 13.7273C68.6179 13.4716 68.5289 13.2547 68.3509 13.0767C68.1728 12.8968 67.8906 12.8068 67.5043 12.8068H66.1747V14.7386ZM75.5824 15.0909C75.5824 15.7045 75.4716 16.2348 75.25 16.6818C75.0284 17.1288 74.7244 17.4735 74.3381 17.7159C73.9517 17.9583 73.5104 18.0795 73.0142 18.0795C72.518 18.0795 72.0767 17.9583 71.6903 17.7159C71.304 17.4735 71 17.1288 70.7784 16.6818C70.5568 16.2348 70.446 15.7045 70.446 15.0909C70.446 14.4773 70.5568 13.947 70.7784 13.5C71 13.053 71.304 12.7083 71.6903 12.4659C72.0767 12.2235 72.518 12.1023 73.0142 12.1023C73.5104 12.1023 73.9517 12.2235 74.3381 12.4659C74.7244 12.7083 75.0284 13.053 75.25 13.5C75.4716 13.947 75.5824 14.4773 75.5824 15.0909ZM74.9006 15.0909C74.9006 14.5871 74.8163 14.1619 74.6477 13.8153C74.4811 13.4688 74.2547 13.2064 73.9688 13.0284C73.6847 12.8504 73.3665 12.7614 73.0142 12.7614C72.6619 12.7614 72.3428 12.8504 72.0568 13.0284C71.7727 13.2064 71.5464 13.4688 71.3778 13.8153C71.2112 14.1619 71.1278 14.5871 71.1278 15.0909C71.1278 15.5947 71.2112 16.0199 71.3778 16.3665C71.5464 16.7131 71.7727 16.9754 72.0568 17.1534C72.3428 17.3314 72.6619 17.4205 73.0142 17.4205C73.3665 17.4205 73.6847 17.3314 73.9688 17.1534C74.2547 16.9754 74.4811 16.7131 74.6477 16.3665C74.8163 16.0199 74.9006 15.5947 74.9006 15.0909ZM76.267 19.4091V17.375H76.642C76.7708 17.2576 76.892 17.0919 77.0057 16.8778C77.1212 16.6619 77.2188 16.3741 77.2983 16.0142C77.3797 15.6525 77.4337 15.1932 77.4602 14.6364L77.5852 12.1818H81.0398V17.375H81.7102V19.3977H81.0398V18H76.9375V19.4091H76.267ZM77.483 17.375H80.3693V12.8068H78.2216L78.1307 14.6364C78.108 15.0606 78.0682 15.4451 78.0114 15.7898C77.9545 16.1326 77.8816 16.4366 77.7926 16.7017C77.7036 16.965 77.6004 17.1894 77.483 17.375ZM83.2635 12.1818V14.1818H82.6385V12.1818H83.2635ZM84.718 12.1818V14.1818H84.093V12.1818H84.718ZM88.1605 19.6364V13.6364H88.8082V14.3295H88.8878C88.937 14.2538 89.0052 14.1572 89.0923 14.0398C89.1813 13.9205 89.3082 13.8144 89.473 13.7216C89.6397 13.6269 89.8651 13.5795 90.1491 13.5795C90.5166 13.5795 90.8404 13.6714 91.1207 13.8551C91.401 14.0388 91.6198 14.2992 91.777 14.6364C91.9342 14.9735 92.0128 15.3712 92.0128 15.8295C92.0128 16.2917 91.9342 16.6922 91.777 17.0312C91.6198 17.3684 91.402 17.6297 91.1236 17.8153C90.8452 17.9991 90.5241 18.0909 90.1605 18.0909C89.8802 18.0909 89.6558 18.0445 89.4872 17.9517C89.3187 17.857 89.1889 17.75 89.098 17.6307C89.0071 17.5095 88.937 17.4091 88.8878 17.3295H88.831V19.6364H88.1605ZM88.8196 15.8182C88.8196 16.1477 88.8679 16.4384 88.9645 16.6903C89.0611 16.9403 89.2022 17.1364 89.3878 17.2784C89.5734 17.4186 89.8007 17.4886 90.0696 17.4886C90.3499 17.4886 90.5838 17.4148 90.7713 17.267C90.9607 17.1174 91.1027 16.9167 91.1974 16.6648C91.294 16.411 91.3423 16.1288 91.3423 15.8182C91.3423 15.5114 91.295 15.2348 91.2003 14.9886C91.1075 14.7405 90.9664 14.5445 90.777 14.4006C90.5895 14.2547 90.3537 14.1818 90.0696 14.1818C89.7969 14.1818 89.5677 14.2509 89.3821 14.3892C89.1965 14.5256 89.0563 14.7169 88.9616 14.9631C88.867 15.2074 88.8196 15.4924 88.8196 15.8182ZM94.3196 18.1023C94.0431 18.1023 93.7921 18.0502 93.5668 17.946C93.3414 17.84 93.1624 17.6875 93.0298 17.4886C92.8973 17.2879 92.831 17.0455 92.831 16.7614C92.831 16.5114 92.8802 16.3087 92.9787 16.1534C93.0772 15.9962 93.2088 15.8731 93.3736 15.7841C93.5384 15.6951 93.7202 15.6288 93.919 15.5852C94.1198 15.5398 94.3215 15.5038 94.5241 15.4773C94.7893 15.4432 95.0043 15.4176 95.169 15.4006C95.3357 15.3816 95.4569 15.3504 95.5327 15.3068C95.6103 15.2633 95.6491 15.1875 95.6491 15.0795V15.0568C95.6491 14.7765 95.5724 14.5587 95.419 14.4034C95.2675 14.2481 95.0374 14.1705 94.7287 14.1705C94.4086 14.1705 94.1577 14.2405 93.9759 14.3807C93.794 14.5208 93.6662 14.6705 93.5923 14.8295L92.956 14.6023C93.0696 14.3371 93.2211 14.1307 93.4105 13.983C93.6018 13.8333 93.8101 13.7292 94.0355 13.6705C94.2628 13.6098 94.4863 13.5795 94.706 13.5795C94.8461 13.5795 95.0071 13.5966 95.1889 13.6307C95.3726 13.6629 95.5497 13.7301 95.7202 13.8324C95.8925 13.9347 96.0355 14.089 96.1491 14.2955C96.2628 14.5019 96.3196 14.7784 96.3196 15.125V18H95.6491V17.4091H95.6151C95.5696 17.5038 95.4938 17.6051 95.3878 17.7131C95.2817 17.821 95.1406 17.9129 94.9645 17.9886C94.7884 18.0644 94.5734 18.1023 94.3196 18.1023ZM94.4219 17.5C94.687 17.5 94.9105 17.4479 95.0923 17.3438C95.276 17.2396 95.4143 17.1051 95.5071 16.9403C95.6018 16.7756 95.6491 16.6023 95.6491 16.4205V15.8068C95.6207 15.8409 95.5582 15.8722 95.4616 15.9006C95.367 15.9271 95.2571 15.9508 95.1321 15.9716C95.009 15.9905 94.8887 16.0076 94.7713 16.0227C94.6558 16.036 94.562 16.0473 94.4901 16.0568C94.3158 16.0795 94.1529 16.1165 94.0014 16.1676C93.8518 16.2169 93.7306 16.2917 93.6378 16.392C93.5469 16.4905 93.5014 16.625 93.5014 16.7955C93.5014 17.0284 93.5876 17.2045 93.7599 17.3239C93.9342 17.4413 94.1548 17.5 94.4219 17.5ZM100.782 12L101.123 12.4091C100.99 12.5379 100.837 12.6278 100.663 12.679C100.488 12.7301 100.291 12.7614 100.072 12.7727C99.852 12.7841 99.6077 12.7955 99.3388 12.8068C99.0357 12.8182 98.7848 12.892 98.5859 13.0284C98.3871 13.1648 98.2337 13.3617 98.1257 13.6193C98.0178 13.8769 97.9486 14.1932 97.9183 14.5682H97.9751C98.1229 14.2955 98.3274 14.0947 98.5888 13.9659C98.8501 13.8371 99.1304 13.7727 99.4297 13.7727C99.7706 13.7727 100.077 13.8523 100.35 14.0114C100.623 14.1705 100.839 14.4062 100.998 14.7188C101.157 15.0312 101.237 15.4167 101.237 15.875C101.237 16.3314 101.155 16.7254 100.992 17.0568C100.831 17.3883 100.605 17.6439 100.313 17.8239C100.023 18.0019 99.6835 18.0909 99.2933 18.0909C98.9032 18.0909 98.5613 17.9991 98.2678 17.8153C97.9742 17.6297 97.746 17.3551 97.5831 16.9915C97.4202 16.6259 97.3388 16.1742 97.3388 15.6364V15.1705C97.3388 14.1989 97.5036 13.4621 97.8331 12.9602C98.1645 12.4583 98.6626 12.1989 99.3274 12.1818C99.5623 12.1742 99.7715 12.1723 99.9553 12.1761C100.139 12.1799 100.299 12.1714 100.435 12.1506C100.572 12.1297 100.687 12.0795 100.782 12ZM99.2933 17.4886C99.5566 17.4886 99.7829 17.4223 99.9723 17.2898C100.164 17.1572 100.31 16.9706 100.413 16.7301C100.515 16.4877 100.566 16.2027 100.566 15.875C100.566 15.5568 100.514 15.286 100.41 15.0625C100.308 14.839 100.161 14.6686 99.9695 14.5511C99.7782 14.4337 99.549 14.375 99.282 14.375C99.0869 14.375 98.9117 14.4081 98.7564 14.4744C98.6011 14.5407 98.4685 14.6383 98.3587 14.767C98.2488 14.8958 98.1636 15.053 98.103 15.2386C98.0443 15.4242 98.013 15.6364 98.0092 15.875C98.0092 16.3636 98.1238 16.7547 98.353 17.0483C98.5821 17.3419 98.8956 17.4886 99.2933 17.4886ZM104.035 18.0909C103.641 18.0909 103.295 17.9972 102.998 17.8097C102.702 17.6222 102.471 17.3598 102.305 17.0227C102.14 16.6856 102.058 16.2917 102.058 15.8409C102.058 15.3864 102.14 14.9896 102.305 14.6506C102.471 14.3116 102.702 14.0483 102.998 13.8608C103.295 13.6733 103.641 13.5795 104.035 13.5795C104.429 13.5795 104.773 13.6733 105.069 13.8608C105.366 14.0483 105.597 14.3116 105.762 14.6506C105.929 14.9896 106.012 15.3864 106.012 15.8409C106.012 16.2917 105.929 16.6856 105.762 17.0227C105.597 17.3598 105.366 17.6222 105.069 17.8097C104.773 17.9972 104.429 18.0909 104.035 18.0909ZM104.035 17.4886C104.334 17.4886 104.58 17.4119 104.773 17.2585C104.967 17.1051 105.11 16.9034 105.202 16.6534C105.295 16.4034 105.342 16.1326 105.342 15.8409C105.342 15.5492 105.295 15.2775 105.202 15.0256C105.11 14.7737 104.967 14.5701 104.773 14.4148C104.58 14.2595 104.334 14.1818 104.035 14.1818C103.736 14.1818 103.489 14.2595 103.296 14.4148C103.103 14.5701 102.96 14.7737 102.867 15.0256C102.774 15.2775 102.728 15.5492 102.728 15.8409C102.728 16.1326 102.774 16.4034 102.867 16.6534C102.96 16.9034 103.103 17.1051 103.296 17.2585C103.489 17.4119 103.736 17.4886 104.035 17.4886ZM106.465 14.2614V13.6364H110.011V14.2614H108.579V18H107.908V14.2614H106.465ZM112.046 18.1023C111.77 18.1023 111.519 18.0502 111.293 17.946C111.068 17.84 110.889 17.6875 110.756 17.4886C110.624 17.2879 110.558 17.0455 110.558 16.7614C110.558 16.5114 110.607 16.3087 110.705 16.1534C110.804 15.9962 110.935 15.8731 111.1 15.7841C111.265 15.6951 111.447 15.6288 111.646 15.5852C111.846 15.5398 112.048 15.5038 112.251 15.4773C112.516 15.4432 112.731 15.4176 112.896 15.4006C113.062 15.3816 113.183 15.3504 113.259 15.3068C113.337 15.2633 113.376 15.1875 113.376 15.0795V15.0568C113.376 14.7765 113.299 14.5587 113.146 14.4034C112.994 14.2481 112.764 14.1705 112.455 14.1705C112.135 14.1705 111.884 14.2405 111.702 14.3807C111.521 14.5208 111.393 14.6705 111.319 14.8295L110.683 14.6023C110.796 14.3371 110.948 14.1307 111.137 13.983C111.328 13.8333 111.537 13.7292 111.762 13.6705C111.989 13.6098 112.213 13.5795 112.433 13.5795C112.573 13.5795 112.734 13.5966 112.915 13.6307C113.099 13.6629 113.276 13.7301 113.447 13.8324C113.619 13.9347 113.762 14.089 113.876 14.2955C113.989 14.5019 114.046 14.7784 114.046 15.125V18H113.376V17.4091H113.342C113.296 17.5038 113.22 17.6051 113.114 17.7131C113.008 17.821 112.867 17.9129 112.691 17.9886C112.515 18.0644 112.3 18.1023 112.046 18.1023ZM112.148 17.5C112.414 17.5 112.637 17.4479 112.819 17.3438C113.003 17.2396 113.141 17.1051 113.234 16.9403C113.328 16.7756 113.376 16.6023 113.376 16.4205V15.8068C113.347 15.8409 113.285 15.8722 113.188 15.9006C113.094 15.9271 112.984 15.9508 112.859 15.9716C112.736 15.9905 112.615 16.0076 112.498 16.0227C112.382 16.036 112.289 16.0473 112.217 16.0568C112.042 16.0795 111.879 16.1165 111.728 16.1676C111.578 16.2169 111.457 16.2917 111.364 16.392C111.273 16.4905 111.228 16.625 111.228 16.7955C111.228 17.0284 111.314 17.2045 111.487 17.3239C111.661 17.4413 111.881 17.5 112.148 17.5ZM117.099 18.0909C116.679 18.0909 116.316 17.9981 116.011 17.8125C115.708 17.625 115.474 17.3636 115.31 17.0284C115.147 16.6913 115.065 16.2992 115.065 15.8523C115.065 15.4053 115.147 15.0114 115.31 14.6705C115.474 14.3277 115.704 14.0606 115.997 13.8693C116.293 13.6761 116.637 13.5795 117.031 13.5795C117.259 13.5795 117.483 13.6174 117.705 13.6932C117.926 13.7689 118.128 13.892 118.31 14.0625C118.491 14.2311 118.636 14.4545 118.744 14.733C118.852 15.0114 118.906 15.3542 118.906 15.7614V16.0455H115.543V15.4659H118.224C118.224 15.2197 118.175 15 118.077 14.8068C117.98 14.6136 117.842 14.4612 117.662 14.3494C117.484 14.2377 117.274 14.1818 117.031 14.1818C116.764 14.1818 116.533 14.2481 116.338 14.3807C116.145 14.5114 115.996 14.6818 115.892 14.892C115.788 15.1023 115.736 15.3277 115.736 15.5682V15.9545C115.736 16.2841 115.793 16.5634 115.906 16.7926C116.022 17.0199 116.182 17.1932 116.386 17.3125C116.591 17.4299 116.829 17.4886 117.099 17.4886C117.276 17.4886 117.435 17.464 117.577 17.4148C117.721 17.3636 117.845 17.2879 117.949 17.1875C118.053 17.0852 118.134 16.9583 118.19 16.8068L118.838 16.9886C118.77 17.2083 118.655 17.4015 118.494 17.5682C118.333 17.733 118.134 17.8617 117.898 17.9545C117.661 18.0455 117.395 18.0909 117.099 18.0909ZM119.52 14.2614V13.6364H123.065V14.2614H121.634V18H120.963V14.2614H119.52ZM126.293 18V13.6364H129.725V18H129.055V14.2614H126.964V18H126.293ZM132.722 18.0909C132.328 18.0909 131.983 17.9972 131.685 17.8097C131.39 17.6222 131.159 17.3598 130.992 17.0227C130.827 16.6856 130.745 16.2917 130.745 15.8409C130.745 15.3864 130.827 14.9896 130.992 14.6506C131.159 14.3116 131.39 14.0483 131.685 13.8608C131.983 13.6733 132.328 13.5795 132.722 13.5795C133.116 13.5795 133.461 13.6733 133.756 13.8608C134.054 14.0483 134.285 14.3116 134.45 14.6506C134.616 14.9896 134.7 15.3864 134.7 15.8409C134.7 16.2917 134.616 16.6856 134.45 17.0227C134.285 17.3598 134.054 17.6222 133.756 17.8097C133.461 17.9972 133.116 18.0909 132.722 18.0909ZM132.722 17.4886C133.022 17.4886 133.268 17.4119 133.461 17.2585C133.654 17.1051 133.797 16.9034 133.89 16.6534C133.983 16.4034 134.029 16.1326 134.029 15.8409C134.029 15.5492 133.983 15.2775 133.89 15.0256C133.797 14.7737 133.654 14.5701 133.461 14.4148C133.268 14.2595 133.022 14.1818 132.722 14.1818C132.423 14.1818 132.177 14.2595 131.984 14.4148C131.79 14.5701 131.647 14.7737 131.555 15.0256C131.462 15.2775 131.415 15.5492 131.415 15.8409C131.415 16.1326 131.462 16.4034 131.555 16.6534C131.647 16.9034 131.79 17.1051 131.984 17.2585C132.177 17.4119 132.423 17.4886 132.722 17.4886ZM135.257 19.25V17.375H135.621C135.71 17.2822 135.786 17.1818 135.851 17.0739C135.915 16.9659 135.971 16.8381 136.018 16.6903C136.068 16.5407 136.109 16.3589 136.143 16.1449C136.178 15.929 136.208 15.6686 136.234 15.3636L136.382 13.6364H139.155V17.375H139.825V19.25H139.155V18H135.928V19.25H135.257ZM136.382 17.375H138.484V14.2614H137.007L136.893 15.3636C136.846 15.8201 136.787 16.2187 136.717 16.5597C136.647 16.9006 136.536 17.1723 136.382 17.375ZM146.204 12L146.545 12.4091C146.412 12.5379 146.259 12.6278 146.085 12.679C145.91 12.7301 145.713 12.7614 145.494 12.7727C145.274 12.7841 145.03 12.7955 144.761 12.8068C144.458 12.8182 144.207 12.892 144.008 13.0284C143.809 13.1648 143.656 13.3617 143.548 13.6193C143.44 13.8769 143.371 14.1932 143.34 14.5682H143.397C143.545 14.2955 143.749 14.0947 144.011 13.9659C144.272 13.8371 144.552 13.7727 144.852 13.7727C145.192 13.7727 145.499 13.8523 145.772 14.0114C146.045 14.1705 146.261 14.4062 146.42 14.7188C146.579 15.0312 146.658 15.4167 146.658 15.875C146.658 16.3314 146.577 16.7254 146.414 17.0568C146.253 17.3883 146.027 17.6439 145.735 17.8239C145.445 18.0019 145.105 18.0909 144.715 18.0909C144.325 18.0909 143.983 17.9991 143.69 17.8153C143.396 17.6297 143.168 17.3551 143.005 16.9915C142.842 16.6259 142.761 16.1742 142.761 15.6364V15.1705C142.761 14.1989 142.925 13.4621 143.255 12.9602C143.586 12.4583 144.085 12.1989 144.749 12.1818C144.984 12.1742 145.193 12.1723 145.377 12.1761C145.561 12.1799 145.721 12.1714 145.857 12.1506C145.994 12.1297 146.109 12.0795 146.204 12ZM144.715 17.4886C144.978 17.4886 145.205 17.4223 145.394 17.2898C145.585 17.1572 145.732 16.9706 145.835 16.7301C145.937 16.4877 145.988 16.2027 145.988 15.875C145.988 15.5568 145.936 15.286 145.832 15.0625C145.729 14.839 145.583 14.6686 145.391 14.5511C145.2 14.4337 144.971 14.375 144.704 14.375C144.509 14.375 144.334 14.4081 144.178 14.4744C144.023 14.5407 143.89 14.6383 143.781 14.767C143.671 14.8958 143.585 15.053 143.525 15.2386C143.466 15.4242 143.435 15.6364 143.431 15.875C143.431 16.3636 143.546 16.7547 143.775 17.0483C144.004 17.3419 144.317 17.4886 144.715 17.4886ZM147.684 19.6364V13.6364H148.332V14.3295H148.411C148.46 14.2538 148.529 14.1572 148.616 14.0398C148.705 13.9205 148.832 13.8144 148.996 13.7216C149.163 13.6269 149.388 13.5795 149.673 13.5795C150.04 13.5795 150.364 13.6714 150.644 13.8551C150.924 14.0388 151.143 14.2992 151.3 14.6364C151.458 14.9735 151.536 15.3712 151.536 15.8295C151.536 16.2917 151.458 16.6922 151.3 17.0312C151.143 17.3684 150.925 17.6297 150.647 17.8153C150.369 17.9991 150.048 18.0909 149.684 18.0909C149.404 18.0909 149.179 18.0445 149.011 17.9517C148.842 17.857 148.712 17.75 148.621 17.6307C148.531 17.5095 148.46 17.4091 148.411 17.3295H148.354V19.6364H147.684ZM148.343 15.8182C148.343 16.1477 148.391 16.4384 148.488 16.6903C148.585 16.9403 148.726 17.1364 148.911 17.2784C149.097 17.4186 149.324 17.4886 149.593 17.4886C149.873 17.4886 150.107 17.4148 150.295 17.267C150.484 17.1174 150.626 16.9167 150.721 16.6648C150.817 16.411 150.866 16.1288 150.866 15.8182C150.866 15.5114 150.818 15.2348 150.724 14.9886C150.631 14.7405 150.49 14.5445 150.3 14.4006C150.113 14.2547 149.877 14.1818 149.593 14.1818C149.32 14.1818 149.091 14.2509 148.906 14.3892C148.72 14.5256 148.58 14.7169 148.485 14.9631C148.39 15.2074 148.343 15.4924 148.343 15.8182ZM154.388 18.0909C153.968 18.0909 153.605 17.9981 153.3 17.8125C152.997 17.625 152.763 17.3636 152.599 17.0284C152.436 16.6913 152.354 16.2992 152.354 15.8523C152.354 15.4053 152.436 15.0114 152.599 14.6705C152.763 14.3277 152.993 14.0606 153.286 13.8693C153.582 13.6761 153.926 13.5795 154.32 13.5795C154.548 13.5795 154.772 13.6174 154.994 13.6932C155.215 13.7689 155.417 13.892 155.599 14.0625C155.781 14.2311 155.925 14.4545 156.033 14.733C156.141 15.0114 156.195 15.3542 156.195 15.7614V16.0455H152.832V15.4659H155.513C155.513 15.2197 155.464 15 155.366 14.8068C155.269 14.6136 155.131 14.4612 154.951 14.3494C154.773 14.2377 154.563 14.1818 154.32 14.1818C154.053 14.1818 153.822 14.2481 153.627 14.3807C153.434 14.5114 153.285 14.6818 153.181 14.892C153.077 15.1023 153.025 15.3277 153.025 15.5682V15.9545C153.025 16.2841 153.082 16.5634 153.195 16.7926C153.311 17.0199 153.471 17.1932 153.675 17.3125C153.88 17.4299 154.118 17.4886 154.388 17.4886C154.565 17.4886 154.724 17.464 154.866 17.4148C155.01 17.3636 155.134 17.2879 155.238 17.1875C155.342 17.0852 155.423 16.9583 155.479 16.8068L156.127 16.9886C156.059 17.2083 155.944 17.4015 155.783 17.5682C155.622 17.733 155.424 17.8617 155.187 17.9545C154.95 18.0455 154.684 18.0909 154.388 18.0909ZM160.136 15.5114V16.1364H157.727V15.5114H160.136ZM157.886 13.6364V18H157.215V13.6364H157.886ZM160.647 13.6364V18H159.977V13.6364H160.647ZM161.406 19.25V17.375H161.769C161.858 17.2822 161.935 17.1818 161.999 17.0739C162.064 16.9659 162.12 16.8381 162.167 16.6903C162.216 16.5407 162.258 16.3589 162.292 16.1449C162.326 15.929 162.356 15.6686 162.383 15.3636L162.531 13.6364H165.303V17.375H165.974V19.25H165.303V18H162.076V19.25H161.406ZM162.531 17.375H164.633V14.2614H163.156L163.042 15.3636C162.995 15.8201 162.936 16.2187 162.866 16.5597C162.796 16.9006 162.684 17.1723 162.531 17.375ZM168.636 18.0909C168.242 18.0909 167.897 17.9972 167.599 17.8097C167.304 17.6222 167.073 17.3598 166.906 17.0227C166.741 16.6856 166.659 16.2917 166.659 15.8409C166.659 15.3864 166.741 14.9896 166.906 14.6506C167.073 14.3116 167.304 14.0483 167.599 13.8608C167.897 13.6733 168.242 13.5795 168.636 13.5795C169.03 13.5795 169.375 13.6733 169.67 13.8608C169.968 14.0483 170.199 14.3116 170.364 14.6506C170.53 14.9896 170.614 15.3864 170.614 15.8409C170.614 16.2917 170.53 16.6856 170.364 17.0227C170.199 17.3598 169.968 17.6222 169.67 17.8097C169.375 17.9972 169.03 18.0909 168.636 18.0909ZM168.636 17.4886C168.936 17.4886 169.182 17.4119 169.375 17.2585C169.568 17.1051 169.711 16.9034 169.804 16.6534C169.897 16.4034 169.943 16.1326 169.943 15.8409C169.943 15.5492 169.897 15.2775 169.804 15.0256C169.711 14.7737 169.568 14.5701 169.375 14.4148C169.182 14.2595 168.936 14.1818 168.636 14.1818C168.337 14.1818 168.091 14.2595 167.898 14.4148C167.705 14.5701 167.562 14.7737 167.469 15.0256C167.376 15.2775 167.33 15.5492 167.33 15.8409C167.33 16.1326 167.376 16.4034 167.469 16.6534C167.562 16.9034 167.705 17.1051 167.898 17.2585C168.091 17.4119 168.337 17.4886 168.636 17.4886ZM174.023 17.0909L175.546 13.6364H176.183L174.296 18H173.751L171.898 13.6364H172.523L174.023 17.0909ZM172.308 13.6364V18H171.637V13.6364H172.308ZM175.739 18V13.6364H176.41V18H175.739ZM179.978 18V12.1818H183.489V12.8068H180.683V14.625H182.16C182.576 14.625 182.928 14.6932 183.214 14.8295C183.502 14.9659 183.719 15.1581 183.867 15.4062C184.017 15.6544 184.092 15.947 184.092 16.2841C184.092 16.6212 184.017 16.9186 183.867 17.1761C183.719 17.4337 183.502 17.6354 183.214 17.7812C182.928 17.9271 182.576 18 182.16 18H179.978ZM180.683 17.3864H182.16C182.425 17.3864 182.649 17.3333 182.833 17.2273C183.019 17.1193 183.159 16.9811 183.254 16.8125C183.35 16.642 183.398 16.4621 183.398 16.2727C183.398 15.9943 183.291 15.7547 183.077 15.554C182.863 15.3513 182.558 15.25 182.16 15.25H180.683V17.3864ZM186.445 18.1023C186.168 18.1023 185.917 18.0502 185.692 17.946C185.466 17.84 185.287 17.6875 185.155 17.4886C185.022 17.2879 184.956 17.0455 184.956 16.7614C184.956 16.5114 185.005 16.3087 185.104 16.1534C185.202 15.9962 185.334 15.8731 185.499 15.7841C185.663 15.6951 185.845 15.6288 186.044 15.5852C186.245 15.5398 186.446 15.5038 186.649 15.4773C186.914 15.4432 187.129 15.4176 187.294 15.4006C187.461 15.3816 187.582 15.3504 187.658 15.3068C187.735 15.2633 187.774 15.1875 187.774 15.0795V15.0568C187.774 14.7765 187.697 14.5587 187.544 14.4034C187.393 14.2481 187.162 14.1705 186.854 14.1705C186.534 14.1705 186.283 14.2405 186.101 14.3807C185.919 14.5208 185.791 14.6705 185.717 14.8295L185.081 14.6023C185.195 14.3371 185.346 14.1307 185.536 13.983C185.727 13.8333 185.935 13.7292 186.161 13.6705C186.388 13.6098 186.611 13.5795 186.831 13.5795C186.971 13.5795 187.132 13.5966 187.314 13.6307C187.498 13.6629 187.675 13.7301 187.845 13.8324C188.018 13.9347 188.161 14.089 188.274 14.2955C188.388 14.5019 188.445 14.7784 188.445 15.125V18H187.774V17.4091H187.74C187.695 17.5038 187.619 17.6051 187.513 17.7131C187.407 17.821 187.266 17.9129 187.089 17.9886C186.913 18.0644 186.698 18.1023 186.445 18.1023ZM186.547 17.5C186.812 17.5 187.036 17.4479 187.217 17.3438C187.401 17.2396 187.539 17.1051 187.632 16.9403C187.727 16.7756 187.774 16.6023 187.774 16.4205V15.8068C187.746 15.8409 187.683 15.8722 187.587 15.9006C187.492 15.9271 187.382 15.9508 187.257 15.9716C187.134 15.9905 187.014 16.0076 186.896 16.0227C186.781 16.036 186.687 16.0473 186.615 16.0568C186.441 16.0795 186.278 16.1165 186.126 16.1676C185.977 16.2169 185.856 16.2917 185.763 16.392C185.672 16.4905 185.626 16.625 185.626 16.7955C185.626 17.0284 185.713 17.2045 185.885 17.3239C186.059 17.4413 186.28 17.5 186.547 17.5ZM190.339 17.0114L192.441 13.6364H193.214V18H192.543V14.625L190.452 18H189.668V13.6364H190.339V17.0114ZM191.998 12.1818H192.623C192.623 12.4886 192.517 12.7396 192.305 12.9347C192.093 13.1297 191.805 13.2273 191.441 13.2273C191.083 13.2273 190.798 13.1297 190.586 12.9347C190.376 12.7396 190.271 12.4886 190.271 12.1818H190.896C190.896 12.3295 190.936 12.4593 191.018 12.571C191.101 12.6828 191.242 12.7386 191.441 12.7386C191.64 12.7386 191.782 12.6828 191.867 12.571C191.954 12.4593 191.998 12.3295 191.998 12.1818ZM194.442 18V13.6364H195.112V15.5341H195.555L197.124 13.6364H197.987L196.226 15.7386L198.01 18H197.146L195.714 16.1591H195.112V18H194.442ZM200.023 18.1023C199.746 18.1023 199.495 18.0502 199.27 17.946C199.045 17.84 198.866 17.6875 198.733 17.4886C198.6 17.2879 198.534 17.0455 198.534 16.7614C198.534 16.5114 198.583 16.3087 198.682 16.1534C198.78 15.9962 198.912 15.8731 199.077 15.7841C199.241 15.6951 199.423 15.6288 199.622 15.5852C199.823 15.5398 200.025 15.5038 200.227 15.4773C200.492 15.4432 200.707 15.4176 200.872 15.4006C201.039 15.3816 201.16 15.3504 201.236 15.3068C201.313 15.2633 201.352 15.1875 201.352 15.0795V15.0568C201.352 14.7765 201.276 14.5587 201.122 14.4034C200.971 14.2481 200.741 14.1705 200.432 14.1705C200.112 14.1705 199.861 14.2405 199.679 14.3807C199.497 14.5208 199.369 14.6705 199.295 14.8295L198.659 14.6023C198.773 14.3371 198.924 14.1307 199.114 13.983C199.305 13.8333 199.513 13.7292 199.739 13.6705C199.966 13.6098 200.189 13.5795 200.409 13.5795C200.549 13.5795 200.71 13.5966 200.892 13.6307C201.076 13.6629 201.253 13.7301 201.423 13.8324C201.596 13.9347 201.739 14.089 201.852 14.2955C201.966 14.5019 202.023 14.7784 202.023 15.125V18H201.352V17.4091H201.318C201.273 17.5038 201.197 17.6051 201.091 17.7131C200.985 17.821 200.844 17.9129 200.668 17.9886C200.491 18.0644 200.277 18.1023 200.023 18.1023ZM200.125 17.5C200.39 17.5 200.614 17.4479 200.795 17.3438C200.979 17.2396 201.117 17.1051 201.21 16.9403C201.305 16.7756 201.352 16.6023 201.352 16.4205V15.8068C201.324 15.8409 201.261 15.8722 201.165 15.9006C201.07 15.9271 200.96 15.9508 200.835 15.9716C200.712 15.9905 200.592 16.0076 200.474 16.0227C200.359 16.036 200.265 16.0473 200.193 16.0568C200.019 16.0795 199.856 16.1165 199.705 16.1676C199.555 16.2169 199.434 16.2917 199.341 16.392C199.25 16.4905 199.205 16.625 199.205 16.7955C199.205 17.0284 199.291 17.2045 199.463 17.3239C199.637 17.4413 199.858 17.5 200.125 17.5ZM202.86 18V17.375H203.019C203.15 17.375 203.259 17.3494 203.346 17.2983C203.433 17.2453 203.503 17.1534 203.556 17.0227C203.611 16.8902 203.653 16.7064 203.681 16.4716C203.711 16.2348 203.733 15.9337 203.746 15.5682L203.826 13.6364H206.735V18H206.065V14.2614H204.462L204.394 15.8182C204.379 16.1761 204.347 16.4915 204.298 16.7642C204.25 17.035 204.177 17.2623 204.079 17.446C203.982 17.6297 203.853 17.768 203.692 17.8608C203.531 17.9536 203.33 18 203.087 18H202.86ZM209.738 18.0909C209.329 18.0909 208.977 17.9943 208.681 17.8011C208.386 17.608 208.158 17.3419 207.999 17.0028C207.84 16.6638 207.761 16.2765 207.761 15.8409C207.761 15.3977 207.842 15.0066 208.005 14.6676C208.17 14.3267 208.399 14.0606 208.692 13.8693C208.988 13.6761 209.333 13.5795 209.727 13.5795C210.033 13.5795 210.31 13.6364 210.556 13.75C210.802 13.8636 211.004 14.0227 211.161 14.2273C211.318 14.4318 211.416 14.6705 211.454 14.9432H210.783C210.732 14.7443 210.619 14.5682 210.442 14.4148C210.268 14.2595 210.033 14.1818 209.738 14.1818C209.477 14.1818 209.247 14.25 209.05 14.3864C208.855 14.5208 208.703 14.7112 208.593 14.9574C208.485 15.2017 208.431 15.4886 208.431 15.8182C208.431 16.1553 208.484 16.4489 208.59 16.6989C208.698 16.9489 208.85 17.143 209.045 17.2812C209.242 17.4195 209.473 17.4886 209.738 17.4886C209.912 17.4886 210.07 17.4583 210.212 17.3977C210.354 17.3371 210.475 17.25 210.573 17.1364C210.672 17.0227 210.742 16.8864 210.783 16.7273H211.454C211.416 16.9848 211.322 17.2169 211.173 17.4233C211.025 17.6278 210.829 17.7907 210.585 17.9119C210.342 18.0312 210.06 18.0909 209.738 18.0909ZM213.104 17.0114L215.207 13.6364H215.979V18H215.309V14.625L213.218 18H212.434V13.6364H213.104V17.0114ZM219.457 18V13.6364H220.128V15.5341H220.571L222.139 13.6364H223.003L221.241 15.7386L223.026 18H222.162L220.73 16.1591H220.128V18H219.457ZM225.347 18.0909C224.953 18.0909 224.608 17.9972 224.31 17.8097C224.015 17.6222 223.784 17.3598 223.617 17.0227C223.452 16.6856 223.37 16.2917 223.37 15.8409C223.37 15.3864 223.452 14.9896 223.617 14.6506C223.784 14.3116 224.015 14.0483 224.31 13.8608C224.608 13.6733 224.953 13.5795 225.347 13.5795C225.741 13.5795 226.086 13.6733 226.381 13.8608C226.679 14.0483 226.91 14.3116 227.075 14.6506C227.241 14.9896 227.325 15.3864 227.325 15.8409C227.325 16.2917 227.241 16.6856 227.075 17.0227C226.91 17.3598 226.679 17.6222 226.381 17.8097C226.086 17.9972 225.741 18.0909 225.347 18.0909ZM225.347 17.4886C225.647 17.4886 225.893 17.4119 226.086 17.2585C226.279 17.1051 226.422 16.9034 226.515 16.6534C226.608 16.4034 226.654 16.1326 226.654 15.8409C226.654 15.5492 226.608 15.2775 226.515 15.0256C226.422 14.7737 226.279 14.5701 226.086 14.4148C225.893 14.2595 225.647 14.1818 225.347 14.1818C225.048 14.1818 224.802 14.2595 224.609 14.4148C224.415 14.5701 224.272 14.7737 224.18 15.0256C224.087 15.2775 224.04 15.5492 224.04 15.8409C224.04 16.1326 224.087 16.4034 224.18 16.6534C224.272 16.9034 224.415 17.1051 224.609 17.2585C224.802 17.4119 225.048 17.4886 225.347 17.4886ZM230.734 17.0909L232.257 13.6364H232.893L231.007 18H230.462L228.609 13.6364H229.234L230.734 17.0909ZM229.018 13.6364V18H228.348V13.6364H229.018ZM232.45 18V13.6364H233.121V18H232.45ZM234.348 18V13.6364H237.78V18H237.109V14.2614H235.018V18H234.348ZM240.288 18.1023C240.012 18.1023 239.761 18.0502 239.536 17.946C239.31 17.84 239.131 17.6875 238.999 17.4886C238.866 17.2879 238.8 17.0455 238.8 16.7614C238.8 16.5114 238.849 16.3087 238.947 16.1534C239.046 15.9962 239.178 15.8731 239.342 15.7841C239.507 15.6951 239.689 15.6288 239.888 15.5852C240.089 15.5398 240.29 15.5038 240.493 15.4773C240.758 15.4432 240.973 15.4176 241.138 15.4006C241.304 15.3816 241.426 15.3504 241.501 15.3068C241.579 15.2633 241.618 15.1875 241.618 15.0795V15.0568C241.618 14.7765 241.541 14.5587 241.388 14.4034C241.236 14.2481 241.006 14.1705 240.697 14.1705C240.377 14.1705 240.126 14.2405 239.945 14.3807C239.763 14.5208 239.635 14.6705 239.561 14.8295L238.925 14.6023C239.038 14.3371 239.19 14.1307 239.379 13.983C239.571 13.8333 239.779 13.7292 240.004 13.6705C240.232 13.6098 240.455 13.5795 240.675 13.5795C240.815 13.5795 240.976 13.5966 241.158 13.6307C241.341 13.6629 241.518 13.7301 241.689 13.8324C241.861 13.9347 242.004 14.089 242.118 14.2955C242.232 14.5019 242.288 14.7784 242.288 15.125V18H241.618V17.4091H241.584C241.538 17.5038 241.463 17.6051 241.357 17.7131C241.25 17.821 241.109 17.9129 240.933 17.9886C240.757 18.0644 240.542 18.1023 240.288 18.1023ZM240.391 17.5C240.656 17.5 240.879 17.4479 241.061 17.3438C241.245 17.2396 241.383 17.1051 241.476 16.9403C241.571 16.7756 241.618 16.6023 241.618 16.4205V15.8068C241.589 15.8409 241.527 15.8722 241.43 15.9006C241.336 15.9271 241.226 15.9508 241.101 15.9716C240.978 15.9905 240.857 16.0076 240.74 16.0227C240.625 16.036 240.531 16.0473 240.459 16.0568C240.285 16.0795 240.122 16.1165 239.97 16.1676C239.821 16.2169 239.699 16.2917 239.607 16.392C239.516 16.4905 239.47 16.625 239.47 16.7955C239.47 17.0284 239.556 17.2045 239.729 17.3239C239.903 17.4413 240.124 17.5 240.391 17.5ZM246.433 15.5114V16.1364H244.023V15.5114H246.433ZM244.183 13.6364V18H243.512V13.6364H244.183ZM246.944 13.6364V18H246.273V13.6364H246.944ZM248.839 17.0114L250.941 13.6364H251.714V18H251.043V14.625L248.952 18H248.168V13.6364H248.839V17.0114Z"
    fill="#8E8E8E"/>
</svg>
